<svg id="Layer_1" enable-background="new 0 0 131 131" height="512" viewBox="0 0 131 131" width="512" xmlns="http://www.w3.org/2000/svg" xmlns:xlink="http://www.w3.org/1999/xlink"><clipPath id="SVGID_2_"><path id="SVGID_1_" d="m15.2829 96.5188c-.0011-.4-.1422-.6839-.3703-.8164l19.0974 11.0982c.2281.1325.3692.4164.3703.8164.0023.7952-.5495 1.7708-1.2415 2.1703l-19.0975-11.0982c.6921-.3995 1.2438-1.3752 1.2416-2.1703z"/></clipPath><clipPath id="SVGID_4_"><path id="SVGID_3_" d="m14.9126 95.7023 19.0974 11.0982c-.2253-.131-.5355-.1142-.8794.0844l-19.0974-11.0982c.3439-.1985.654-.2153.8794-.0844z"/></clipPath><clipPath id="SVGID_6_"><path id="SVGID_5_" d="m13.1425 98.7797c.2278.1324.5441.1142.8988-.0906l19.0974 11.0982c-.3547.2048-.671.223-.8988.0906-5.7292-3.3294-13.3682-7.7687-19.0974-11.0982z"/></clipPath><clipPath id="SVGID_8_"><path id="SVGID_7_" d="m32.24 109.878-19.0974-11.0982c-.2277-.1324-.3671-.4152-.3682-.8127-.0023-.7951.5495-1.7708 1.2588-2.1803l19.0974 11.0982c-.7093.4095-1.261 1.3852-1.2588 2.1803.0011.3975.1405.6803.3682.8127z"/></clipPath><clipPath id="SVGID_10_"><path id="SVGID_9_" d="m15.2659 90.555c-.0011-.4-.1422-.6839-.3703-.8164l19.0974 11.0982c.2281.1325.3692.4164.3703.8164.0023.7952-.5495 1.7708-1.2415 2.1703l-19.0974-11.0981c.6921-.3996 1.2438-1.3752 1.2415-2.1704z"/></clipPath><clipPath id="SVGID_12_"><path id="SVGID_11_" d="m14.8957 89.7386 19.0974 11.0982c-.2253-.131-.5355-.1142-.8794.0844l-19.0974-11.0982c.3439-.1985.654-.2153.8794-.0844z"/></clipPath><clipPath id="SVGID_14_"><path id="SVGID_13_" d="m13.1256 92.816c.2278.1324.5441.1142.8988-.0906l19.0974 11.0982c-.3547.2048-.671.223-.8988.0906-5.7292-3.3295-13.3682-7.7687-19.0974-11.0982z"/></clipPath><clipPath id="SVGID_16_"><path id="SVGID_15_" d="m32.2231 103.9142-19.0974-11.0982c-.2277-.1324-.3671-.4152-.3682-.8127-.0023-.7952.5495-1.7708 1.2588-2.1803l19.0974 11.0982c-.7093.4095-1.261 1.3851-1.2588 2.1803.0011.3975.1405.6804.3682.8127z"/></clipPath><clipPath id="SVGID_18_"><path id="SVGID_17_" d="m14.0076 86.7815c.692-.3995 1.2437-1.3751 1.2415-2.1703 6.3659 3.6994 12.7315 7.3988 19.0974 11.0982.0022.7952-.5495 1.7707-1.2415 2.1703-5.7292-3.3295-13.3682-7.7687-19.0974-11.0982z"/></clipPath><clipPath id="SVGID_20_"><path id="SVGID_19_" d="m13.1088 86.8721c.2278.1324.5441.1142.8988-.0906l19.0974 11.0982c-.3547.2048-.671.223-.8988.0906-5.7292-3.3294-13.3682-7.7687-19.0974-11.0982z"/></clipPath><clipPath id="SVGID_22_"><path id="SVGID_21_" d="m15.2491 84.6112c-.0011-.4-.1422-.6839-.3703-.8164l19.0974 11.0982c.2281.1325.3692.4164.3703.8164v.0001c-6.3659-3.6995-12.7315-7.3989-19.0974-11.0983z"/></clipPath><clipPath id="SVGID_24_"><path id="SVGID_23_" d="m32.2062 97.9704-19.0974-11.0982c-.2277-.1324-.3671-.4152-.3682-.8127-.0023-.7952.5495-1.7708 1.2588-2.1803l19.0974 11.0982c-.7093.4095-1.261 1.3851-1.2588 2.1803.0011.3975.1405.6803.3682.8127z"/></clipPath><g><path d="m129.5019 65.1547c.03 3.3-2.15 6.64-6.55 9.15l-80.97 46.77c-8.73 5.02-22.8101 5.02-31.5-.03-4.29-2.48-6.4399-5.76-6.4399-9.03l-.04-10.59v-.12c0-.63.0601-1.26.2-1.89-1.77-1.91-2.6599-4.02-2.6699-6.15l-.03-10.78c-.01-3.37 2.22-6.75 6.6799-9.33 1.49-.87 3.1401-1.59 4.8701-2.15l-.02-6.23c0-3.35 2.22-6.71 6.6199-9.25 1.02-.59 2.1101-1.11 3.26-1.56l-.1199-36.07 20.3099-11.73 20.1901 11.73.09 27.46c1.0699.15 2.11.34 3.13.59l-.04-12.34 12-6.92 11.92 6.92.0199 5.41c.8801.11 1.75.2599 2.6101.45l-.01-4.52c0-.56.09-1.13.27-1.68-.16-.51-.25-1.03-.25-1.55l-.02-6.92c-.01-2.29 1.5-4.58 4.52-6.33 2.6699-1.54 6.1-2.4 9.59-2.56h.0299c.4102-.02.8101-.03 1.2101-.03h.02c.39 0 .7899.01 1.1801.03h.0499c3.49.16 6.91 1.02 9.5599 2.56 2.9701 1.73 4.4601 3.9901 4.4601 6.25l.01 6.91c0 .55-.08 1.1-.26 1.65.16.53.25 1.06.25 1.59l.01 6.91c0 .48-.0601.96-.2001 1.44.1201.46.1901.92.1901 1.38v1.09c3.92 2.48 5.85 5.63 5.83 8.76v.15z" fill="#bac1ce"/><g><path d="m13.0308 64.779.0306 10.7765c.0054 1.9215.7442 3.8396 2.2223 5.5989l-.0306-10.7764c-1.4781-1.7594-2.2169-3.6775-2.2223-5.599z" fill="#d4dae8"/></g><g><path d="m1.5007 82.4897.0306 10.7765c.0094 3.3242 2.1886 6.6405 6.5445 9.1718.5451.3168 1.1114.597 1.6987.8894l-.0306-10.7765c-.5873-.2924-1.1536-.5726-1.6987-.8894-4.3559-2.5313-6.5351-5.8476-6.5445-9.1718z" fill="#d4dae8"/></g><g><path d="m4.0064 101.2429.0329 10.7744c0 3.2719 2.1483 6.5438 6.4448 9.0226 8.6922 5.0568 22.7715 5.0568 31.4968.0331l80.9727-46.7659c4.3955-2.5116 6.5769-5.8497 6.5439-9.1547l-.0331-10.7082c0 3.305-2.1812 6.61-6.5108 9.0888l-81.0057 46.7657c-8.7253 5.0237-22.8046 5.0237-31.4968-.0331-4.2965-2.4788-6.4447-5.7508-6.4447-9.0227z" fill="#d4dae8"/></g><g><path d="m10.4511 110.2708c8.6932 5.0399 22.7729 5.0399 31.4926.0267l80.985-46.7722c8.693-5.0132 8.7464-13.173.0532-18.2397-6.1065-3.5466-14.9329-4.5867-22.6929-3.0932-7.9464-4.64-20.9061-4.64-28.8792-.0534-2 1.1733-3.4667 2.4799-4.4533 3.9198-7.4665-1.9199-16.5328-1.1199-22.6662 2.4267-1.8133 1.04-3.1998 2.2399-4.1599 3.4932-7.0931-.8533-14.9062.32-20.4795 3.5466-6.9331 3.9999-8.4531 10.0263-4.3998 14.8529-2.5333.6134-4.96 1.5467-7.0666 2.7734-8.8532 5.1198-8.9331 13.4129-.1333 18.5063.5334.32 1.0932.6133 1.68.8799-7.8932 5.0933-7.6266 12.8798.7199 17.733z" fill="#e4e8f4"/></g><g><g><path d="m93.0123 44.6714.0196 6.92c.0064 2.2538 1.4861 4.5029 4.4403 6.2197 5.9636 3.4657 15.6609 3.4657 21.6636.0001 3.0121-1.739 4.5173-4.0242 4.5109-6.3072l-.0196-6.92c.0064 2.283-1.4988 4.5682-4.5109 6.3072-6.0026 3.4656-15.6999 3.4656-21.6636-.0001-2.9543-1.7168-4.4339-3.9659-4.4403-6.2197z" fill="#576cfb"/></g><g><path d="m97.5367 38.3506c-6.0027 3.4656-6.0342 9.0827-.0841 12.5405 5.9636 3.4657 15.6609 3.4657 21.6636.0001 5.9891-3.4578 6.0207-9.0748.0571-12.5405-5.9502-3.4578-15.6475-3.4579-21.6366-.0001z" fill="#748bfd"/></g><g><path d="m94.0173 34.9626.0183 9.4238c.006 2.1059 1.3885 4.2075 4.149 5.8116 5.5723 3.2383 14.6333 3.2383 20.2421.0001 2.8145-1.6249 4.2209-3.7602 4.2149-5.8934l-.0183-9.4238c.006 2.1332-1.4004 4.2685-4.2149 5.8934-5.6088 3.2382-14.6698 3.2382-20.2421-.0001-2.7605-1.6041-4.1431-3.7056-4.149-5.8116z" fill="#fed57a"/></g><g><path d="m98.2448 29.0566c-5.6088 3.2382-5.6383 8.4867-.0786 11.7177 5.5723 3.2383 14.6333 3.2383 20.2421.0001 5.5961-3.2309 5.6257-8.4794.0534-11.7177-5.5597-3.231-14.6207-3.231-20.2169-.0001z" fill="#fed57a"/></g><g><path d="m93.0123 34.942.0196 6.92c.0064 2.2538 1.4861 4.5029 4.4403 6.2197 5.9636 3.4657 15.6609 3.4657 21.6636.0001 3.0121-1.739 4.5173-4.0242 4.5109-6.3072l-.0196-6.92c.0064 2.283-1.4988 4.5682-4.5109 6.3072-6.0026 3.4656-15.6999 3.4656-21.6636-.0001-2.9543-1.7168-4.4339-3.9659-4.4403-6.2197z" fill="#576cfb"/></g><g><path d="m97.5367 28.6212c-6.0027 3.4656-6.0342 9.0827-.0841 12.5405 5.9636 3.4657 15.6609 3.4657 21.6636.0001 5.9891-3.4578 6.0207-9.0748.0571-12.5405-5.9502-3.4578-15.6475-3.4579-21.6366-.0001z" fill="#748bfd"/></g><g><path d="m94.0173 25.2332.0183 9.4238c.006 2.1059 1.3885 4.2075 4.149 5.8116 5.5723 3.2383 14.6333 3.2383 20.2421.0001 2.8145-1.6249 4.2209-3.7602 4.2149-5.8934l-.0183-9.4238c.006 2.1332-1.4004 4.2685-4.2149 5.8934-5.6088 3.2382-14.6698 3.2382-20.2421-.0001-2.7605-1.6041-4.1431-3.7057-4.149-5.8116z" fill="#fed57a"/></g><g><path d="m98.2448 19.3272c-5.6088 3.2382-5.6383 8.4867-.0786 11.7177 5.5723 3.2383 14.6333 3.2383 20.2421.0001 5.5961-3.2309 5.6257-8.4794.0534-11.7177-5.5597-3.231-14.6207-3.2311-20.2169-.0001z" fill="#fed57a"/></g><g><path d="m93.0123 24.7899.0196 6.92c.0064 2.2538 1.4861 4.5029 4.4403 6.2197 5.9636 3.4657 15.6609 3.4657 21.6636.0001 3.0121-1.739 4.5173-4.0242 4.5109-6.3072l-.0196-6.92c.0064 2.283-1.4988 4.5682-4.5109 6.3072-6.0026 3.4656-15.6999 3.4656-21.6636-.0001-2.9543-1.7168-4.4339-3.966-4.4403-6.2197z" fill="#576cfb"/></g><g><path d="m97.5367 18.4691c-6.0027 3.4656-6.0342 9.0827-.0841 12.5405 5.9636 3.4657 15.6609 3.4657 21.6636.0001 5.9891-3.4578 6.0207-9.0748.0571-12.5405-5.9502-3.4579-15.6475-3.4579-21.6366-.0001z" fill="#748bfd"/></g><path d="m99.2577 18.0575c-5.05 2.9156-5.0766 7.6413-.0707 10.5504 5.0172 2.9157 13.1756 2.9157 18.2256.0001 5.0386-2.9091 5.0653-7.6347.048-10.5504-5.0058-2.9091-13.1642-2.9091-18.2029-.0001z" fill="#90a8fc"/><path d="m119.9185 35.4096c.2343 0 .4789-.0721.7279-.2154.7879-.4549 1.4042-1.5227 1.4025-2.4299-.0034-.8472-.5219-1.2266-1.0351-1.2266-.2343 0-.479.073-.727.2154-.7888.4566-1.4051 1.5253-1.4025 2.4334.0016.7313.417 1.2231 1.0342 1.2231z" fill="#e4e8f4"/><path d="m120.4623 32.0579c-.6831.3944-1.2285 1.343-1.2262 2.128.0022.7769.5512 1.0978 1.2343.7034.6796-.3924 1.2285-1.347 1.2263-2.124-.0024-.785-.5548-1.0998-1.2344-.7074z" fill="#bac1ce"/><path d="m119.9185 45.4776c.2343 0 .4789-.0721.7279-.2154.7879-.4549 1.4042-1.5227 1.4025-2.4299-.0034-.8472-.5219-1.2266-1.0351-1.2266-.2343 0-.479.073-.727.2154-.7888.4566-1.4051 1.5253-1.4025 2.4334.0016.7312.417 1.2231 1.0342 1.2231z" fill="#e4e8f4"/><path d="m120.4623 42.1259c-.6831.3944-1.2285 1.343-1.2262 2.128.0022.7769.5512 1.0978 1.2343.7034.6796-.3924 1.2285-1.347 1.2263-2.124-.0024-.785-.5548-1.0998-1.2344-.7074z" fill="#bac1ce"/><path d="m119.9185 55.5456c.2343 0 .4789-.0721.7279-.2154.7879-.4549 1.4042-1.5227 1.4025-2.4299-.0034-.8472-.5219-1.2266-1.0351-1.2266-.2343 0-.479.073-.727.2154-.7888.4566-1.4051 1.5253-1.4025 2.4334.0016.7312.417 1.2231 1.0342 1.2231z" fill="#e4e8f4"/><path d="m120.4623 52.1939c-.6831.3944-1.2285 1.343-1.2262 2.128.0022.7769.5512 1.0978 1.2343.7034.6796-.3924 1.2285-1.347 1.2263-2.124-.0024-.785-.5548-1.0998-1.2344-.7074z" fill="#bac1ce"/></g><g><g><path d="m66.4741 33.6076.0924 26.4231 11.9205 6.9274-.0924-26.423z" fill="#37617b"/></g><path d="m78.3946 40.5351.0924 26.423 11.9985-6.9273-.0924-26.4231z" fill="#416e84"/><path d="m89.265 59.1895v-.0001l.4796.4149-10.5224 6.0747-.0024-.6903z" fill="#4c7891"/><path d="m89.1808 35.1619.4771-.2754.0867 24.7178-.4796-.4149z" fill="#37617b"/><path d="m89.1808 35.1619.0842 24.0276-10.0452 5.7992-.0843-24.0275z" fill="#30596d"/><path d="m66.4741 33.6076 11.9205 6.9275 11.9985-6.9274-11.9205-6.9274z" fill="#4c7891"/><path d="m87.4413 33.6034-8.9712-5.2128-9.0441 5.2215 8.9704 5.2127z" fill="#37617b"/><g><path d="m71.5987 39.0841-.003 1.0638 5.092 2.9399.003-1.0639z" fill="#efac41"/></g><g><path d="m68.2733 37.1642-.003 1.0638.8503.4909.003-1.0638z" fill="#fed57a"/></g><g><path d="m77.0334 41.3193c.2362.1364.434.468.4332.7502l-.0053 1.8671c-.0008.2714-.1998.3848-.436.2485l-9.0976-5.2525c-.2362-.1364-.4339-.4789-.4332-.7502l.0053-1.8671c.0008-.2822.1998-.3848.436-.2485zm-5.4377-1.1714 5.092 2.9399.003-1.0638-5.092-2.9399zm-3.3254-1.9199.8503.4909.003-1.0638-.8503-.4909zm1.6627.9599.8503.4909.003-1.0638-.8503-.4909z" fill="#2b4b5f"/></g><g><path d="m69.936 38.1241-.003 1.0639.8503.4909.003-1.0639z" fill="#fed57a"/></g><g><path d="m71.5987 44.163-.003 1.0639 5.092 2.9398.003-1.0638z" fill="#6eba6e"/></g><g><path d="m68.2733 42.2431-.003 1.0638.8503.4909.003-1.0638z" fill="#9ad898"/></g><g><path d="m77.0334 46.3982c.2362.1364.434.468.4332.7502l-.0053 1.8671c-.0008.2714-.1998.3848-.436.2485l-9.0976-5.2525c-.2362-.1364-.4339-.4789-.4332-.7502l.0053-1.8671c.0008-.2822.1998-.3848.436-.2485zm-5.4377-1.1714 5.092 2.9399.003-1.0638-5.092-2.9399zm-3.3254-1.9199.8503.4909.003-1.0638-.8503-.4909zm1.6627.96.8503.4909.003-1.0638-.8503-.491z" fill="#2b4b5f"/></g><g><path d="m69.936 43.2031-.003 1.0638.8503.4909.003-1.0638z" fill="#9ad898"/></g><g><path d="m71.5987 49.242-.003 1.0638 5.092 2.9399.003-1.0639z" fill="#4562ef"/></g><g><path d="m68.2733 47.3221-.003 1.0638.8503.4909.003-1.0638z" fill="#748bfd"/></g><g><path d="m77.0334 51.4772c.2362.1364.434.468.4332.7502l-.0053 1.8671c-.0008.2714-.1998.3848-.436.2485l-9.0976-5.2525c-.2362-.1364-.4339-.4789-.4332-.7502l.0053-1.8671c.0008-.2822.1998-.3848.436-.2485zm-5.4377-1.1714 5.092 2.9399.003-1.0638-5.092-2.9399zm-3.3254-1.9199.8503.4909.003-1.0638-.8503-.4909zm1.6627.9599.8503.4909.003-1.0638-.8503-.4909z" fill="#2b4b5f"/></g><g><path d="m69.936 48.282-.003 1.0639.8503.4909.003-1.0639z" fill="#748bfd"/></g><g><path d="m71.5987 54.3209-.003 1.0639 5.092 2.9398.003-1.0638z" fill="#f34858"/></g><g><path d="m68.2733 52.401-.003 1.0638.8503.4909.003-1.0638z" fill="#f9607f"/></g><g><path d="m77.0334 56.5561c.2362.1364.434.468.4332.7502l-.0053 1.8671c-.0008.2714-.1998.3848-.436.2485l-9.0976-5.2525c-.2362-.1364-.4339-.4789-.4332-.7502l.0053-1.8671c.0008-.2822.1998-.3848.436-.2485zm-5.4377-1.1714 5.092 2.9399.003-1.0638-5.092-2.9399zm-3.3254-1.9199.8503.4909.003-1.0638-.8503-.4909zm1.6627.96.8503.4909.003-1.0638-.8503-.4909z" fill="#2b4b5f"/></g><g><path d="m69.936 53.361-.003 1.0638.8503.4909.003-1.0638z" fill="#f9607f"/></g><g><path d="m71.5987 59.3999-.003 1.0638 5.092 2.9399.003-1.0639z" fill="#bac1ce"/></g><g><path d="m68.2733 57.48-.003 1.0638.8503.4909.003-1.0638z" fill="#d4dae8"/></g><g><path d="m77.0334 61.6351c.2362.1364.434.468.4332.7503l-.0053 1.8671c-.0008.2714-.1998.3848-.436.2485l-9.0976-5.2525c-.2362-.1364-.4339-.4789-.4332-.7502l.0053-1.8671c.0008-.2822.1998-.3848.436-.2485zm-5.4377-1.1714 5.092 2.9399.003-1.0638-5.092-2.9399zm-3.3254-1.9199.8503.4909.003-1.0638-.8503-.4909zm1.6627.9599.8503.4909.003-1.0638-.8503-.4909z" fill="#2b4b5f"/></g><g><path d="m69.936 58.4399-.003 1.0638.8503.4909.003-1.0638z" fill="#d4dae8"/></g><g fill="#4c7891"><path d="m80.1296 47.4525.0016.5424 8.0981-4.6755-.0015-.5424z"/><path d="m80.1348 49.2937.0016.5348 8.0981-4.6755-.0015-.5348z"/><path d="m80.1348 45.6189.0016.5348 8.0981-4.6755-.0015-.5348z"/><path d="m80.1348 43.7815.0016.5348 8.0981-4.6755-.0015-.5348z"/><path d="m80.1348 41.9441.0016.5348 8.0981-4.6755-.0015-.5348z"/><path d="m80.1712 62.1288.0016.5424 8.0981-4.6754-.0015-.5425z"/><path d="m80.166 60.2952.0016.5425 8.0981-4.6755-.0015-.5425z"/><path d="m80.1608 58.4616.0016.5425 8.0982-4.6755-.0016-.5424z"/><path d="m80.1556 56.628.0016.5425 8.0981-4.6755-.0015-.5424z"/><path d="m80.1504 54.7945.0016.5424 8.0982-4.6755-.0016-.5424z"/><path d="m80.1452 52.9609.0016.5348 8.0981-4.6755-.0015-.5348z"/><path d="m80.14 51.1273.0016.5348 8.0981-4.6755-.0015-.5348z"/></g></g><g><g><path d="m22.7898 17.8924.1565 44.738 20.1831 11.7292-.1564-44.738z" fill="#37617b"/></g><path d="m42.973 29.6216.1564 44.738 20.3153-11.729-.1565-44.738z" fill="#416e84"/><path d="m61.3781 61.2061v-.0001l.812.7025-17.8158 10.2853-.0041-1.1687z" fill="#4c7891"/><path d="m61.2355 20.5241.8078-.4664.1468 41.8508-.812-.7025z" fill="#37617b"/><path d="m61.2355 20.5241.1426 40.682-17.0079 9.819-.1427-40.6821z" fill="#30596d"/><path d="m22.7898 17.8924 20.1832 11.7292 20.3152-11.729-20.1832-11.7292z" fill="#4c7891"/><path d="m58.2903 17.8853-15.1894-8.826-15.313 8.8407 15.1882 8.8259z" fill="#37617b"/><g><path d="m31.4666 27.1648-.0051 1.8013 8.6215 4.9776.0051-1.8012z" fill="#efac41"/></g><g><path d="m25.8362 23.9141-.0051 1.8013 1.4396.8311.0051-1.8012z" fill="#fed57a"/></g><g><path d="m40.6682 30.9494c.3999.2309.7347.7924.7334 1.2703l-.009 3.1613c-.0013.4595-.3383.6515-.7382.4207l-15.4034-8.8933c-.3999-.2309-.7347-.8108-.7334-1.2703l.009-3.1613c.0014-.4779.3383-.6515.7382-.4207zm-9.2067-1.9834 8.6215 4.9776.0051-1.8012-8.6215-4.9776zm-5.6304-3.2507 1.4396.8312.0051-1.8012-1.4396-.8312zm2.8152 1.6254 1.4396.8312.0051-1.8012-1.4396-.8312z" fill="#2b4b5f"/></g><g><path d="m28.6514 25.5395-.0051 1.8012 1.4396.8312.0051-1.8013z" fill="#fed57a"/></g><g><path d="m31.4666 35.7642-.0051 1.8012 8.6215 4.9777.0051-1.8013z" fill="#6eba6e"/></g><g><path d="m25.8362 32.5135-.0051 1.8013 1.4396.8311.0051-1.8012z" fill="#9ad898"/></g><g><path d="m40.6682 39.5488c.3999.2309.7347.7924.7334 1.2703l-.009 3.1613c-.0013.4595-.3383.6515-.7382.4207l-15.4034-8.8933c-.3999-.2309-.7347-.8108-.7334-1.2703l.009-3.1613c.0014-.4779.3383-.6515.7382-.4207zm-9.2067-1.9834 8.6215 4.9776.0051-1.8012-8.6215-4.9776zm-5.6304-3.2507 1.4396.8312.0051-1.8012-1.4396-.8312zm2.8152 1.6254 1.4396.8312.0051-1.8013-1.4396-.8312z" fill="#2b4b5f"/></g><g><path d="m28.6514 34.1389-.0051 1.8012 1.4396.8312.0051-1.8013z" fill="#9ad898"/></g><g><path d="m31.4666 44.3636-.0051 1.8012 8.6215 4.9777.0051-1.8013z" fill="#4562ef"/></g><g><path d="m25.8362 41.1129-.0051 1.8013 1.4396.8311.0051-1.8012z" fill="#748bfd"/></g><g><path d="m40.6682 48.1481c.3999.2309.7347.7924.7334 1.2703l-.009 3.1613c-.0013.4595-.3383.6515-.7382.4207l-15.4034-8.8932c-.3999-.2309-.7347-.8108-.7334-1.2703l.009-3.1613c.0014-.4779.3383-.6515.7382-.4207zm-9.2067-1.9833 8.6215 4.9776.0051-1.8012-8.6215-4.9776zm-5.6304-3.2507 1.4396.8312.0051-1.8012-1.4396-.8312zm2.8152 1.6254 1.4396.8312.0051-1.8012-1.4396-.8312z" fill="#2b4b5f"/></g><g><path d="m28.6514 42.7383-.0051 1.8012 1.4396.8311.0051-1.8012z" fill="#748bfd"/></g><g><path d="m31.4666 52.963-.0051 1.8012 8.6215 4.9776.0051-1.8012z" fill="#f34858"/></g><g><path d="m25.8362 49.7123-.0051 1.8012 1.4396.8312.0051-1.8012z" fill="#f9607f"/></g><g><path d="m40.6682 56.7475c.3999.2309.7347.7924.7334 1.2703l-.009 3.1613c-.0013.4595-.3383.6515-.7382.4207l-15.4034-8.8932c-.3999-.2309-.7347-.8108-.7334-1.2703l.009-3.1613c.0014-.4779.3383-.6515.7382-.4207zm-9.2067-1.9833 8.6215 4.9776.0051-1.8012-8.6215-4.9776zm-5.6304-3.2507 1.4396.8312.0051-1.8012-1.4396-.8312zm2.8152 1.6253 1.4396.8312.0051-1.8012-1.4396-.8312z" fill="#2b4b5f"/></g><g><path d="m28.6514 51.3376-.0051 1.8013 1.4396.8311.0051-1.8012z" fill="#f9607f"/></g><g><path d="m31.4666 61.5624-.0051 1.8012 8.6215 4.9776.0051-1.8012z" fill="#bac1ce"/></g><g><path d="m25.8362 58.3117-.0051 1.8012 1.4396.8312.0051-1.8013z" fill="#d4dae8"/></g><g><path d="m40.6682 65.3469c.3999.2309.7347.7924.7334 1.2703l-.009 3.1613c-.0013.4595-.3383.6515-.7382.4207l-15.4034-8.8932c-.3999-.2309-.7347-.8108-.7334-1.2703l.009-3.1613c.0014-.4779.3383-.6515.7382-.4207zm-9.2067-1.9833 8.6215 4.9776.0051-1.8012-8.6215-4.9776zm-5.6304-3.2507 1.4396.8312.0051-1.8012-1.4396-.8312zm2.8152 1.6253 1.4396.8312.0051-1.8012-1.4396-.8312z" fill="#2b4b5f"/></g><g><path d="m28.6514 59.937-.0051 1.8013 1.4396.8311.0051-1.8012z" fill="#d4dae8"/></g><g fill="#4c7891"><path d="m45.9106 41.3338.0026.9184 13.7114-7.9163-.0026-.9184z"/><path d="m45.9194 44.4512.0026.9055 13.7114-7.9163-.0026-.9054z"/><path d="m45.9194 38.2293.0026.9054 13.7114-7.9162-.0026-.9055z"/><path d="m45.9194 35.1183.0026.9054 13.7114-7.9162-.0026-.9055z"/><path d="m45.9194 32.0073.0026.9055 13.7114-7.9163-.0026-.9055z"/><path d="m45.9811 66.1828.0026.9185 13.7113-7.9163-.0026-.9184z"/><path d="m45.9723 63.0783.0026.9184 13.7113-7.9162-.0026-.9185z"/><path d="m45.9635 59.9738.0026.9184 13.7113-7.9162-.0026-.9185z"/><path d="m45.9546 56.8693.0027.9184 13.7113-7.9163-.0026-.9184z"/><path d="m45.9458 53.7648.0027.9184 13.7113-7.9163-.0026-.9184z"/><path d="m45.937 50.6602.0026.9055 13.7114-7.9162-.0026-.9055z"/><path d="m45.9282 47.5557.0026.9055 13.7114-7.9163-.0026-.9054z"/></g></g><g><g><path d="m52.4649 99.3063-19.0974-11.0982-.0027-.9542 19.0974 11.0982z" fill="#3f434f"/></g><g><path d="m46.3234 102.8521-19.0974-11.0981 6.1415-3.5459 19.0974 11.0982z" fill="#5b5e71"/></g><g><path d="m46.3234 102.8522-19.0974-11.0982-.0027-.9542 19.0974 11.0982z" fill="#888"/></g><g><path d="m46.3207 101.898-19.0974-11.0982 6.1415-3.5458 19.0974 11.0982z" fill="#dbdbdb"/></g><g enable-background="new"><g clip-path="url(#SVGID_2_)" enable-background="new"><path d="m33.1388 109.7873-19.0974-11.0982c.1445-.0834.2828-.1919.4113-.3187l19.0974 11.0982c-.1285.1268-.2669.2353-.4113.3187" fill="#393c47"/><path d="m33.5501 109.4686-19.0974-11.0982c.0459-.0453.0906-.093.1339-.1427l19.0974 11.0982c-.0433.0497-.088.0974-.1339.1427" fill="#373b45"/><path d="m33.6839 109.326-19.0974-11.0982c.0344-.0395.0679-.0803.1003-.1221l19.0974 11.0982c-.0324.0418-.0659.0826-.1003.1221" fill="#363944"/><path d="m33.7843 109.2038-19.0974-11.0982c.0284-.0367.0561-.0742.0829-.1124l19.0974 11.0982c-.0268.0383-.0545.0758-.0829.1124" fill="#353842"/><path d="m33.8672 109.0914-19.0974-11.0982c.0248-.0354.0489-.0714.0723-.1079l19.0974 11.0982c-.0234.0366-.0475.0726-.0723.1079" fill="#333640"/><path d="m33.9395 108.9835-19.0974-11.0982c.0223-.0349.0439-.0702.0648-.106l19.0974 11.0982c-.0209.0358-.0425.0712-.0648.106" fill="#32353e"/><path d="m34.0043 108.8775-19.0974-11.0982c.0204-.035.0402-.0704.0592-.1062l19.0974 11.0982c-.0191.0358-.0388.0712-.0592.1062" fill="#30333d"/><path d="m34.0635 108.7713-19.0974-11.0982c.0189-.0355.037-.0714.0545-.1075l19.0974 11.0982c-.0175.0362-.0357.072-.0545.1075" fill="#2f323b"/><path d="m34.1179 108.6638-19.0974-11.0982c.0175-.0364.0343-.073.0503-.1099l19.0974 11.0982c-.016.0369-.0327.0736-.0503.1099" fill="#2d3039"/><path d="m34.1682 108.5539-19.0974-11.0982c.0164-.0378.0319-.0758.0466-.1139l19.0974 11.0982c-.0147.0381-.0302.0761-.0466.1139" fill="#2c2f37"/><path d="m34.2148 108.44-19.0974-11.0982c.0153-.0399.0297-.08.0431-.1201l19.0974 11.0982c-.0134.0401-.0278.0802-.0431.1201" fill="#2b2d35"/><path d="m34.2579 108.3199-19.0974-11.0982c.0144-.0433.0277-.0866.0397-.13l19.0974 11.0982c-.012.0433-.0253.0867-.0397.13" fill="#292c34"/><path d="m34.2976 108.1899-19.0974-11.0982c.0136-.049.0256-.0979.036-.1467l19.0974 11.0982c-.0104.0488-.0224.0977-.036.1467" fill="#282a32"/><path d="m34.3336 108.0432-19.0974-11.0982c.0126-.0595.0228-.1187.0305-.1775l19.0974 11.0982c-.0077.0588-.0179.118-.0305.1775" fill="#262930"/><path d="m34.364 107.8657-19.0974-11.0982c.0109-.0843.0165-.1675.0162-.2488-.0011-.4-.1423-.6839-.3703-.8164l19.0974 11.0982c.2281.1325.3692.4165.3703.8164.0003.0814-.0053.1646-.0162.2488" fill="#25272e"/></g></g><g enable-background="new"><g clip-path="url(#SVGID_4_)" enable-background="new"><path d="m33.1306 106.8849-19.0974-11.0982c.0583-.0337.1157-.0621.1719-.0855l19.0974 11.0982c-.0562.0234-.1136.0518-.1719.0855" fill="#ccc"/><path d="m33.3025 106.7994-19.0974-11.0982c.0494-.0206.0979-.0372.1453-.0501l19.0974 11.0982c-.0474.0129-.0959.0295-.1453.0501" fill="#c7c7c7"/><path d="m33.4477 106.7493-19.0974-11.0982c.0367-.01.0728-.0176.1081-.0231l19.0974 11.0982c-.0353.0055-.0713.0131-.1081.0231" fill="#c2c2c2"/><path d="m33.5558 106.7262-19.0974-11.0982c.0312-.0048.0619-.0079.0919-.0092l19.0974 11.0982c-.03.0014-.0606.0044-.0919.0092" fill="#bdbdbd"/><path d="m33.6477 106.717-19.0974-11.0982c.0278-.0012.0551-.001.0818.0007l19.0974 11.0982c-.0266-.0017-.0539-.0019-.0818-.0007" fill="#b8b8b8"/><path d="m33.7295 106.7177-19.0974-11.0982c.0255.0016.0505.0045.0749.0088l19.0974 11.0982c-.0244-.0042-.0493-.0072-.0749-.0088" fill="#b3b3b3"/><path d="m33.8044 106.7265-19.0974-11.0982c.0238.0041.0471.0095.0698.0161l19.0974 11.0982c-.0227-.0066-.0459-.012-.0698-.0161" fill="#adadad"/><path d="m33.8742 106.7426-19.0974-11.0982c.0226.0066.0445.0143.0659.0232l19.0974 11.0982c-.0213-.0089-.0433-.0167-.0659-.0232" fill="#a8a8a8"/><path d="m33.9401 106.7658-19.0974-11.0982c.0217.0091.0427.0194.0631.0308l19.0974 11.0982c-.0204-.0114-.0414-.0217-.0631-.0308" fill="#a3a3a3"/><path d="m34.0032 106.7967-19.0974-11.0982.0068.0038 19.0974 11.0982z" fill="#9e9e9e"/></g></g><g enable-background="new"><g clip-path="url(#SVGID_6_)" enable-background="new"><path d="m32.24 109.8779-19.0974-11.0982.0068.0039 19.0974 11.0982z" fill="#2c2f37"/><path d="m32.2468 109.8818-19.0974-11.0982c.0203.0114.0413.0217.0629.0308l19.0974 11.0982c-.0216-.0091-.0426-.0193-.0629-.0308" fill="#2d3039"/><path d="m32.3097 109.9126-19.0974-11.0982c.0214.0089.0434.0167.066.0233l19.0974 11.0982c-.0226-.0066-.0446-.0144-.066-.0233" fill="#2f323b"/><path d="m32.3757 109.9359-19.0974-11.0982c.0228.0066.0462.012.0702.0162l19.0974 11.0982c-.024-.0042-.0474-.0096-.0702-.0162" fill="#30333d"/><path d="m32.4459 109.9521-19.0974-11.0982c.0246.0043.0498.0072.0756.0088l19.0974 11.0982c-.0258-.0016-.051-.0046-.0756-.0088" fill="#32353e"/><path d="m32.5215 109.9609-19.0974-11.0982c.027.0017.0547.0019.083.0007l19.0974 11.0982c-.0283.0012-.056.001-.083-.0007" fill="#333640"/><path d="m32.6045 109.9616-19.0974-11.0982c.0306-.0014.0618-.0045.0937-.0094l19.0974 11.0982c-.0319.0049-.0632.008-.0937.0094" fill="#353842"/><path d="m32.6982 109.9522-19.0974-11.0982c.0362-.0056.0733-.0135.111-.0237l19.0974 11.0982c-.0378.0102-.0748.0181-.111.0237" fill="#363944"/><path d="m32.8092 109.9284-19.0974-11.0982c.0487-.0132.0986-.0304.1496-.0516l19.0974 11.0982c-.051.0212-.1009.0384-.1496.0516" fill="#373b45"/><path d="m32.9588 109.8768-19.0974-11.0982c.0587-.0244.1187-.0542.1799-.0895l19.0974 11.0982c-.0612.0353-.1212.0651-.1799.0895" fill="#393c47"/></g></g><g enable-background="new"><g clip-path="url(#SVGID_8_)" enable-background="new"><path d="m32.24 109.878-19.0974-11.0982c-.2277-.1323-.3671-.4152-.3682-.8127-.0002-.0812.0053-.1642.0162-.2484l19.0974 11.0982c-.0109.0842-.0164.1672-.0162.2484.0011.3975.1405.6803.3682.8127" fill="#858585"/><path d="m31.888 108.8168-19.0974-11.0981c.0076-.0584.0177-.1174.0303-.1766l19.0974 11.0982c-.0126.0591-.0227.1181-.0303.1765" fill="#8a8a8a"/><path d="m31.9183 108.6402-19.0974-11.0982c.0103-.0485.0222-.0971.0357-.1458l19.0974 11.0982c-.0135.0487-.0254.0974-.0357.1458" fill="#8f8f8f"/><path d="m31.954 108.4944-19.0974-11.0982c.0119-.0431.0251-.0861.0394-.1291l19.0974 11.0982c-.0143.043-.0274.0861-.0394.1291" fill="#949494"/><path d="m31.9935 108.3653-19.0974-11.0982c.0133-.0399.0276-.0797.0428-.1193l19.0974 11.0982c-.0153.0397-.0296.0794-.0428.1193" fill="#999"/><path d="m32.0363 108.246-19.0974-11.0982c.0146-.0379.03-.0756.0463-.1131l19.0974 11.0982c-.0164.0375-.0318.0752-.0463.1131" fill="#9e9e9e"/><path d="m32.0825 108.1329-19.0974-11.0982c.0159-.0366.0326-.0731.05-.1092l19.0974 11.0982c-.0174.0361-.0341.0725-.05.1092" fill="#a3a3a3"/><path d="m32.1325 108.0236-19.0974-11.0982c.0173-.0359.0354-.0716.0542-.1069l19.0974 11.0982c-.0188.0353-.0369.071-.0542.1069" fill="#a8a8a8"/><path d="m32.1867 107.9167-19.0974-11.0982c.0189-.0356.0386-.0709.059-.1058l19.0974 11.0982c-.0204.0349-.0401.0702-.059.1058" fill="#adadad"/><path d="m32.2457 107.8109-19.0974-11.0982c.0208-.0357.0424-.071.0646-.1058l19.0974 11.0982c-.0223.0349-.0438.0701-.0646.1058" fill="#b3b3b3"/><path d="m32.3103 107.7052-19.0974-11.0982c.0234-.0366.0475-.0726.0723-.108l19.0974 11.0982c-.0248.0354-.049.0714-.0723.108" fill="#b8b8b8"/><path d="m32.3826 107.5972-19.0974-11.0982c.027-.0384.0547-.0761.0833-.113l19.0974 11.0982c-.0285.0369-.0563.0746-.0833.113" fill="#bdbdbd"/><path d="m32.4659 107.4842-19.0974-11.0982c.0328-.0424.0667-.0836.1016-.1237l19.0974 11.0982c-.0348.0401-.0687.0813-.1016.1237" fill="#c2c2c2"/><path d="m32.5675 107.3605-19.0974-11.0982c.0442-.0508.09-.0996.1371-.1461l19.0974 11.0982c-.0471.0465-.0929.0953-.1371.1461" fill="#c7c7c7"/><path d="m32.7046 107.2145-19.0974-11.0982c.1324-.1305.2756-.2427.4259-.3295l19.0974 11.0982c-.1502.0867-.2935.1989-.4259.3295" fill="#ccc"/></g></g><g><path d="m30.2032 107.3007-19.0974-11.0982 23.3551-13.4841 19.0974 11.0982z" fill="#5b5e71"/></g><g><path d="m52.448 93.3426-19.0974-11.0982-.0027-.9343 19.0974 11.0982z" fill="#3f434f"/></g><g><path d="m30.2032 107.3007 23.3551-13.4841.0154 5.4468-23.3551 13.4841zm2.9356 2.4866c.692-.3995 1.2437-1.3752 1.2415-2.1703-.0023-.7951-.5577-1.1316-1.2497-.732-.7093.4095-1.261 1.3852-1.2588 2.1803s.5577 1.1315 1.267.722m19.3261-10.481-.0027-.9542-6.1415 3.5458.0027.9542z" fill="#474b59"/></g><g><path d="m52.4622 98.3522.0027.9542-6.1415 3.5458-.0027-.9542z" fill="#9ad898"/></g><g><path d="m46.3064 96.8884-19.0974-11.0982 6.1416-3.5458 19.0974 11.0982z" fill="#5b5e71"/></g><g><path d="m46.3065 96.8884-19.0974-11.0982-.0027-.9343 19.0974 11.0982z" fill="#888"/></g><g><path d="m46.3038 95.9541-19.0974-11.0982 6.1416-3.5458 19.0974 11.0982z" fill="#dbdbdb"/></g><g enable-background="new"><g clip-path="url(#SVGID_10_)" enable-background="new"><path d="m33.1219 103.8235-19.0974-11.0982c.1445-.0834.2828-.1919.4113-.3187l19.0974 11.0982c-.1285.1268-.2669.2353-.4113.3187" fill="#393c47"/><path d="m33.5332 103.5049-19.0974-11.0982c.0459-.0453.0906-.093.1339-.1427l19.0974 11.0982c-.0433.0497-.088.0973-.1339.1427" fill="#373b45"/><path d="m33.667 103.3622-19.0974-11.0982c.0344-.0395.0679-.0803.1003-.1221l19.0974 11.0982c-.0324.0419-.0659.0826-.1003.1221" fill="#363944"/><path d="m33.7674 103.2401-19.0974-11.0982c.0284-.0367.0561-.0742.0829-.1124l19.0974 11.0982c-.0268.0382-.0545.0757-.0829.1124" fill="#353842"/><path d="m33.8503 103.1277-19.0974-11.0982c.0248-.0354.0489-.0714.0723-.1079l19.0974 11.0982c-.0234.0365-.0475.0725-.0723.1079" fill="#333640"/><path d="m33.9226 103.0198-19.0974-11.0982c.0223-.0349.0439-.0702.0648-.106l19.0974 11.0982c-.0209.0358-.0425.0711-.0648.106" fill="#32353e"/><path d="m33.9874 102.9138-19.0974-11.0982c.0204-.035.0402-.0704.0592-.1062l19.0974 11.0982c-.0191.0357-.0388.0712-.0592.1062" fill="#30333d"/><path d="m34.0465 102.8076-19.0974-11.0982c.0189-.0355.037-.0714.0545-.1075l19.0974 11.0982c-.0174.0361-.0356.072-.0545.1075" fill="#2f323b"/><path d="m34.101 102.7001-19.0974-11.0982c.0175-.0364.0343-.0731.0503-.1099l19.0974 11.0982c-.016.0369-.0328.0735-.0503.1099" fill="#2d3039"/><path d="m34.1513 102.5902-19.0974-11.0982c.0164-.0378.0319-.0758.0466-.1139l19.0974 11.0982c-.0147.0381-.0302.0761-.0466.1139" fill="#2c2f37"/><path d="m34.1979 102.4763-19.0974-11.0982c.0153-.0399.0297-.08.0431-.1201l19.0974 11.0982c-.0134.0401-.0278.0802-.0431.1201" fill="#2b2d35"/><path d="m34.241 102.3561-19.0974-11.0982c.0144-.0433.0277-.0867.0397-.13l19.0974 11.0982c-.012.0434-.0253.0868-.0397.13" fill="#292c34"/><path d="m34.2807 102.2261-19.0974-11.0982c.0136-.049.0256-.0979.036-.1467l19.0974 11.0982c-.0104.0488-.0224.0978-.036.1467" fill="#282a32"/><path d="m34.3167 102.0794-19.0974-11.0982c.0126-.0595.0228-.1187.0305-.1774l19.0974 11.0982c-.0077.0587-.0179.118-.0305.1774" fill="#262930"/><path d="m34.3471 101.902-19.0974-11.0982c.0109-.0843.0165-.1675.0162-.2488-.0011-.4-.1423-.6839-.3703-.8164l19.0974 11.0982c.2281.1325.3692.4164.3703.8164.0003.0813-.0053.1645-.0162.2488" fill="#25272e"/></g></g><g enable-background="new"><g clip-path="url(#SVGID_12_)" enable-background="new"><path d="m33.1137 100.9212-19.0974-11.0982c.0584-.0337.1157-.0621.1719-.0855l19.0974 11.0982c-.0562.0234-.1136.0518-.1719.0855" fill="#ccc"/><path d="m33.2856 100.8357-19.0974-11.0982c.0494-.0206.0979-.0372.1453-.0501l19.0974 11.0982c-.0474.0128-.0959.0295-.1453.0501" fill="#c7c7c7"/><path d="m33.4308 100.7856-19.0974-11.0982c.0367-.01.0728-.0176.1081-.0231l19.0974 11.0982c-.0353.0054-.0713.0131-.1081.0231" fill="#c2c2c2"/><path d="m33.5389 100.7625-19.0974-11.0982c.0312-.0048.0619-.0079.0919-.0092l19.0974 11.0982c-.03.0013-.0606.0044-.0919.0092" fill="#bdbdbd"/><path d="m33.6308 100.7533-19.0974-11.0982c.0278-.0012.0551-.001.0818.0007l19.0974 11.0982c-.0266-.0017-.0539-.0019-.0818-.0007" fill="#b8b8b8"/><path d="m33.7126 100.754-19.0974-11.0982c.0255.0016.0505.0045.0749.0088l19.0974 11.0982c-.0244-.0043-.0493-.0072-.0749-.0088" fill="#b3b3b3"/><path d="m33.7875 100.7627-19.0974-11.0982c.0238.0041.0471.0095.0698.0161l19.0974 11.0982c-.0227-.0066-.0459-.0119-.0698-.0161" fill="#adadad"/><path d="m33.8573 100.7788-19.0974-11.0982c.0226.0066.0445.0143.0659.0232l19.0974 11.0982c-.0213-.0089-.0433-.0166-.0659-.0232" fill="#a8a8a8"/><path d="m33.9232 100.8021-19.0974-11.0982c.0217.0091.0427.0194.0631.0308l19.0974 11.0982c-.0204-.0115-.0414-.0218-.0631-.0308" fill="#a3a3a3"/><path d="m33.9863 100.8329-19.0974-11.0982.0068.0039 19.0974 11.0982z" fill="#9e9e9e"/></g></g><g enable-background="new"><g clip-path="url(#SVGID_14_)" enable-background="new"><path d="m32.2231 103.9142-19.0974-11.0982.0068.0039 19.0974 11.0982z" fill="#2c2f37"/><path d="m32.2299 103.9181-19.0974-11.0982c.0203.0114.0413.0217.0629.0308l19.0974 11.0982c-.0216-.0091-.0426-.0194-.0629-.0308" fill="#2d3039"/><path d="m32.2928 103.9489-19.0974-11.0982c.0214.0089.0434.0167.066.0233l19.0974 11.0982c-.0226-.0066-.0446-.0144-.066-.0233" fill="#2f323b"/><path d="m32.3588 103.9721-19.0974-11.0982c.0228.0066.0462.012.0702.0162l19.0974 11.0982c-.024-.0041-.0474-.0095-.0702-.0162" fill="#30333d"/><path d="m32.429 103.9883-19.0974-11.0982c.0246.0043.0498.0072.0756.0088l19.0974 11.0982c-.0258-.0016-.051-.0045-.0756-.0088" fill="#32353e"/><path d="m32.5046 103.9972-19.0974-11.0982c.027.0017.0547.0019.0829.0007l19.0974 11.0982c-.0282.0012-.0559.001-.0829-.0007" fill="#333640"/><path d="m32.5875 103.9978-19.0974-11.0982c.0306-.0014.0618-.0045.0937-.0094l19.0974 11.0982c-.0318.0049-.0631.0081-.0937.0094" fill="#353842"/><path d="m32.6812 103.9884-19.0974-11.0982c.0362-.0056.0733-.0135.111-.0237l19.0974 11.0982c-.0377.0103-.0747.0181-.111.0237" fill="#363944"/><path d="m32.7923 103.9647-19.0974-11.0982c.0487-.0132.0986-.0304.1496-.0516l19.0974 11.0982c-.051.0212-.1009.0384-.1496.0516" fill="#373b45"/><path d="m32.9419 103.9131-19.0974-11.0982c.0587-.0244.1187-.0542.1799-.0895l19.0974 11.0982c-.0612.0353-.1212.0651-.1799.0895" fill="#393c47"/></g></g><g enable-background="new"><g clip-path="url(#SVGID_16_)" enable-background="new"><path d="m32.2231 103.9142-19.0974-11.0982c-.2277-.1323-.3671-.4152-.3682-.8127-.0002-.0812.0053-.1643.0162-.2484l19.0974 11.0982c-.0109.0842-.0164.1672-.0162.2484.0011.3975.1405.6804.3682.8127" fill="#858585"/><path d="m31.8711 102.8531-19.0974-11.0982c.0076-.0584.0177-.1174.0303-.1766l19.0974 11.0982c-.0126.0592-.0227.1182-.0303.1766" fill="#8a8a8a"/><path d="m31.9014 102.6765-19.0974-11.0982c.0103-.0485.0222-.0971.0357-.1458l19.0974 11.0982c-.0135.0486-.0254.0973-.0357.1458" fill="#8f8f8f"/><path d="m31.9371 102.5307-19.0974-11.0982c.0119-.0431.0251-.0861.0394-.1291l19.0974 11.0982c-.0143.0429-.0274.086-.0394.1291" fill="#949494"/><path d="m31.9766 102.4015-19.0974-11.0981c.0133-.0399.0276-.0797.0428-.1193l19.0974 11.0982c-.0153.0396-.0296.0794-.0428.1192" fill="#999"/><path d="m32.0194 102.2823-19.0974-11.0982c.0146-.0379.03-.0756.0463-.1131l19.0974 11.0982c-.0164.0374-.0318.0752-.0463.1131" fill="#9e9e9e"/><path d="m32.0656 102.1691-19.0974-11.0982c.0159-.0366.0326-.0731.05-.1092l19.0974 11.0982c-.0174.0362-.0341.0726-.05.1092" fill="#a3a3a3"/><path d="m32.1156 102.0599-19.0974-11.0982c.0173-.0359.0354-.0716.0542-.1069l19.0974 11.0982c-.0188.0353-.0369.071-.0542.1069" fill="#a8a8a8"/><path d="m32.1698 101.953-19.0974-11.0982c.0189-.0356.0386-.0709.059-.1058l19.0974 11.0982c-.0204.0349-.0401.0702-.059.1058" fill="#adadad"/><path d="m32.2287 101.8472-19.0974-11.0982c.0208-.0357.0424-.071.0646-.1058l19.0974 11.0982c-.0222.0348-.0437.0701-.0646.1058" fill="#b3b3b3"/><path d="m32.2934 101.7414-19.0974-11.0982c.0234-.0366.0475-.0726.0723-.108l19.0974 11.0982c-.0248.0355-.049.0715-.0723.108" fill="#b8b8b8"/><path d="m32.3657 101.6334-19.0974-11.0982c.0269-.0384.0547-.0761.0833-.113l19.0974 11.0982c-.0286.0369-.0564.0746-.0833.113" fill="#bdbdbd"/><path d="m32.449 101.5205-19.0974-11.0982c.0328-.0424.0667-.0836.1016-.1237l19.0974 11.0982c-.0348.04-.0687.0813-.1016.1237" fill="#c2c2c2"/><path d="m32.5506 101.3968-19.0974-11.0982c.0442-.0508.09-.0996.1371-.1461l19.0974 11.0982c-.0471.0465-.0929.0953-.1371.1461" fill="#c7c7c7"/><path d="m32.6877 101.2507-19.0974-11.0982c.1324-.1305.2756-.2427.426-.3295l19.0974 11.0982c-.1504.0868-.2936.199-.426.3295" fill="#ccc"/></g></g><g><path d="m30.1863 101.3369-19.0974-11.0982 23.3551-13.4841 19.0974 11.0982z" fill="#5b5e71"/></g><g><path d="m52.4311 87.3987-19.0974-11.0982-.0027-.9541 19.0974 11.0982z" fill="#3f434f"/></g><g><path d="m52.4454 92.4083.0026.9343-6.1415 3.5458-.0027-.9343z" fill="#fed57a"/></g><g><path d="m46.2896 90.9445-19.0974-11.0981 6.1415-3.5459 19.0974 11.0982z" fill="#5b5e71"/></g><g><path d="m46.2869 89.9904-19.0974-11.0982 6.1416-3.5458 19.0973 11.0982z" fill="#dbdbdb"/></g><g><path d="m46.2896 90.9446-19.0974-11.0982-.0027-.9542 19.0974 11.0982z" fill="#888"/></g><g enable-background="new"><g clip-path="url(#SVGID_18_)" enable-background="new"><path d="m33.105 97.8797-19.0974-11.0982c.1445-.0834.2828-.1919.4113-.3187l19.0974 11.0982c-.1285.1268-.2668.2353-.4113.3187" fill="#393c47"/><path d="m33.5163 97.561-19.0974-11.0982c.0459-.0453.0906-.093.1339-.1427l19.0974 11.0982c-.0433.0497-.0879.0974-.1339.1427" fill="#373b45"/><path d="m33.6502 97.4184-19.0974-11.0982c.0344-.0395.0679-.0803.1003-.1221l19.0974 11.0982c-.0325.0418-.0659.0826-.1003.1221" fill="#363944"/><path d="m33.7505 97.2962-19.0974-11.0982c.0284-.0367.0561-.0742.0829-.1124l19.0974 11.0982c-.0268.0383-.0545.0758-.0829.1124" fill="#353842"/><path d="m33.8335 97.1838-19.0974-11.0982c.0248-.0354.0489-.0714.0723-.1079l19.0974 11.0982c-.0234.0366-.0475.0726-.0723.1079" fill="#333640"/><path d="m33.9057 97.0759-19.0974-11.0982c.0223-.0349.0439-.0702.0648-.106l19.0974 11.0982c-.0209.0358-.0425.0712-.0648.106" fill="#32353e"/><path d="m33.9705 96.9699-19.0974-11.0982c.0204-.035.0402-.0704.0592-.1062l19.0974 11.0982c-.019.0358-.0388.0712-.0592.1062" fill="#30333d"/><path d="m34.0297 96.8637-19.0974-11.0982c.0189-.0355.037-.0714.0545-.1075l19.0974 11.0982c-.0175.0362-.0356.072-.0545.1075" fill="#2f323b"/><path d="m34.0842 96.7562-19.0974-11.0982c.0175-.0364.0343-.0731.0503-.1099l19.0974 11.0982c-.016.0369-.0328.0736-.0503.1099" fill="#2d3039"/><path d="m34.1345 96.6463-19.0974-11.0982c.0164-.0378.0319-.0758.0466-.1139l19.0973 11.0982c-.0146.0381-.0302.0761-.0465.1139" fill="#2c2f37"/><path d="m34.181 96.5324-19.0974-11.0982c.0153-.0399.0297-.08.0431-.1201l19.0974 11.0982c-.0133.0401-.0277.0802-.0431.1201" fill="#2b2d35"/><path d="m34.2241 96.4123-19.0974-11.0982c.0144-.0433.0277-.0867.0397-.13l19.0974 11.0982c-.012.0433-.0252.0867-.0397.13" fill="#292c34"/><path d="m34.2638 96.2823-19.0974-11.0982c.0136-.049.0256-.0979.036-.1467l19.0974 11.0982c-.0104.0488-.0224.0977-.036.1467" fill="#282a32"/><path d="m34.2998 96.1356-19.0974-11.0982c.0126-.0595.0228-.1187.0305-.1775l19.0974 11.0982c-.0077.0588-.0179.118-.0305.1775" fill="#262930"/><path d="m34.3302 95.9581-19.0973-11.0982c.0109-.0843.0165-.1675.0162-.2488-.0011-.4-.1423-.6839-.3703-.8164l19.0974 11.0982c.2281.1325.3692.4164.3703.8164.0002.0814-.0053.1646-.0163.2488" fill="#25272e"/></g></g><g enable-background="new"><g clip-path="url(#SVGID_20_)" enable-background="new"><path d="m32.2062 97.9703-19.0974-11.0982.0068.0039 19.0974 11.0982z" fill="#2c2f37"/><path d="m32.213 97.9742-19.0974-11.0982c.0203.0114.0413.0217.0629.0308l19.0974 11.0982c-.0216-.0091-.0426-.0193-.0629-.0308" fill="#2d3039"/><path d="m32.2759 98.005-19.0974-11.0982c.0214.0089.0434.0167.066.0233l19.0974 11.0982c-.0226-.0066-.0446-.0144-.066-.0233" fill="#2f323b"/><path d="m32.3419 98.0283-19.0973-11.0982c.0228.0066.0462.012.0702.0162l19.0974 11.0982c-.024-.0042-.0475-.0096-.0703-.0162" fill="#30333d"/><path d="m32.4121 98.0445-19.0974-11.0982c.0246.0043.0498.0072.0756.0089l19.0974 11.0982c-.0257-.0017-.051-.0047-.0756-.0089" fill="#32353e"/><path d="m32.4877 98.0533-19.0974-11.0982c.027.0017.0547.0019.083.0007l19.0974 11.0982c-.0283.0012-.0559.001-.083-.0007" fill="#333640"/><path d="m32.5707 98.054-19.0974-11.0982c.0306-.0014.0618-.0045.0937-.0094l19.0974 11.0982c-.0319.0049-.0631.008-.0937.0094" fill="#353842"/><path d="m32.6644 98.0446-19.0974-11.0982c.0362-.0056.0733-.0135.111-.0237l19.0974 11.0982c-.0377.0102-.0748.0181-.111.0237" fill="#363944"/><path d="m32.7754 98.0208-19.0974-11.0982c.0487-.0132.0986-.0304.1496-.0516l19.0974 11.0982c-.0509.0212-.1009.0384-.1496.0516" fill="#373b45"/><path d="m32.9251 97.9692-19.0974-11.0982c.0587-.0244.1187-.0542.1799-.0895l19.0974 11.0982c-.0612.0353-.1213.0651-.1799.0895" fill="#393c47"/></g></g><g enable-background="new"><g clip-path="url(#SVGID_22_)" enable-background="new"><path d="m34.3302 95.9581-19.0973-11.0982c.0109-.0843.0165-.1675.0162-.2488-.0011-.4-.1423-.6839-.3703-.8164l19.0974 11.0982c.2281.1325.3692.4164.3703.8164.0002.0814-.0053.1646-.0163.2488" fill="#25272e"/></g></g><g enable-background="new"><g clip-path="url(#SVGID_24_)" enable-background="new"><path d="m32.2062 97.9704-19.0974-11.0982c-.2277-.1323-.3671-.4152-.3682-.8127-.0002-.0812.0053-.1643.0162-.2484l19.0974 11.0982c-.0109.0842-.0164.1672-.0162.2484.0011.3975.1405.6803.3682.8127" fill="#858585"/><path d="m31.8542 96.9092-19.0974-11.0981c.0076-.0584.0177-.1174.0303-.1766l19.0974 11.0982c-.0125.0591-.0227.1181-.0303.1765" fill="#8a8a8a"/><path d="m31.8845 96.7326-19.0974-11.0982c.0103-.0485.0222-.0971.0357-.1458l19.0974 11.0982c-.0134.0487-.0254.0973-.0357.1458" fill="#8f8f8f"/><path d="m31.9203 96.5868-19.0974-11.0982c.0119-.0431.0251-.0861.0394-.1291l19.0974 11.0982c-.0143.043-.0275.0861-.0394.1291" fill="#949494"/><path d="m31.9597 96.4577-19.0974-11.0982c.0133-.0399.0276-.0797.0428-.1193l19.0974 11.0982c-.0152.0397-.0295.0794-.0428.1193" fill="#999"/><path d="m32.0025 96.3384-19.0974-11.0982c.0146-.0379.03-.0756.0463-.1131l19.0974 11.0982c-.0163.0375-.0317.0752-.0463.1131" fill="#9e9e9e"/><path d="m32.0488 96.2253-19.0974-11.0982c.0159-.0366.0326-.0731.05-.1092l19.0974 11.0981c-.0175.0362-.0342.0726-.05.1093" fill="#a3a3a3"/><path d="m32.0988 96.116-19.0974-11.0982c.0173-.0359.0354-.0716.0542-.1069l19.0974 11.0982c-.0189.0354-.0369.071-.0542.1069" fill="#a8a8a8"/><path d="m32.1529 96.0091-19.0974-11.0982c.0189-.0356.0386-.0709.059-.1058l19.0974 11.0982c-.0204.0349-.04.0702-.059.1058" fill="#adadad"/><path d="m32.2119 95.9033-19.0974-11.0982c.0208-.0357.0424-.071.0646-.1058l19.0974 11.0982c-.0222.0349-.0438.0702-.0646.1058" fill="#b3b3b3"/><path d="m32.2765 95.7976-19.0974-11.0982c.0234-.0366.0475-.0726.0723-.108l19.0974 11.0982c-.0248.0354-.0489.0714-.0723.108" fill="#b8b8b8"/><path d="m32.3488 95.6896-19.0974-11.0982c.0269-.0384.0547-.0761.0833-.113l19.0974 11.0982c-.0285.0369-.0563.0746-.0833.113" fill="#bdbdbd"/><path d="m32.4322 95.5766-19.0974-11.0982c.0328-.0424.0667-.0836.1016-.1237l19.0974 11.0982c-.0349.0401-.0688.0814-.1016.1237" fill="#c2c2c2"/><path d="m32.5337 95.4529-19.0974-11.0981c.0442-.0508.09-.0996.1371-.1461l19.0974 11.0982c-.0471.0465-.0928.0953-.1371.146" fill="#c7c7c7"/><path d="m32.6709 95.3069-19.0974-11.0982c.1324-.1305.2756-.2427.426-.3295l19.0974 11.0982c-.1504.0867-.2937.199-.426.3295" fill="#ccc"/></g></g><g><path d="m33.0968 94.9774c.692-.3995 1.2475-.0631 1.2497.732s-.5495 1.7708-1.2415 2.1703c-.7093.4095-1.2648.0731-1.267-.722s.5495-1.7708 1.2588-2.1803z" fill="#e4e8f4"/></g><g><path d="m30.1695 95.3931 23.3551-13.4841.0154 5.4469-23.3551 13.4841zm2.9355 2.4866c.692-.3995 1.2437-1.3752 1.2415-2.1703s-.5577-1.1316-1.2497-.732c-.7093.4095-1.261 1.3852-1.2588 2.1803s.5577 1.1315 1.267.722m19.3261-10.481-.0027-.9541-6.1415 3.5458.0027.9541z" fill="#474b59"/></g><g><path d="m52.4284 86.4446.0028.9542-6.1416 3.5458-.0027-.9542z" fill="#e4e8f4"/></g><g><path d="m33.1306 106.8849c.692-.3995 1.2475-.0631 1.2497.732.0023.7952-.5495 1.7708-1.2415 2.1703-.7093.4095-1.2648.0731-1.267-.7221-.0023-.795.5495-1.7706 1.2588-2.1802z" fill="#9ad898"/></g><g><path d="m30.2187 112.7476-19.0974-11.0982-.0155-5.4469 19.0974 11.0982z" fill="#3f434f"/></g><g><path d="m33.1137 100.9212c.692-.3995 1.2475-.0631 1.2497.732s-.5495 1.7708-1.2415 2.1703c-.7093.4095-1.2648.0731-1.267-.722-.0023-.7952.5495-1.7708 1.2588-2.1803z" fill="#fed57a"/></g><g><path d="m30.1863 101.3369 23.3551-13.4841.0155 5.4668-23.3551 13.4841zm2.9356 2.4866c.692-.3995 1.2437-1.3752 1.2415-2.1703s-.5577-1.1316-1.2497-.732c-.7093.4095-1.261 1.3852-1.2588 2.1803.0022.7952.5576 1.1316 1.267.722m19.3261-10.4809-.0026-.9343-6.1415 3.5458.0027.9343z" fill="#474b59"/></g><g><path d="m30.2018 106.8037-19.0974-11.0982-.0155-5.4668 19.0974 11.0982z" fill="#3f434f"/></g><g><path d="m30.1849 100.84-19.0974-11.0982-.0154-5.4469 19.0974 11.0982z" fill="#3f434f"/></g><g><path d="m30.1695 95.3931-19.0974-11.0982 23.3551-13.4841 19.0974 11.0982z" fill="#5b5e71"/></g><g><path d="m30.4886 93.5506-16.2347-9.4345 19.8542-11.4628 16.2346 9.4345z" fill="#474b59"/></g></g><g><path d="m89.197 74.5864-26.3118 15.2908c-.3107.1805-.7429.1533-1.2183-.1212-.9364-.5406-1.6831-1.8339-1.68-2.9099l26.3118-15.2907c-.0031 1.076.7436 2.3693 1.68 2.9099.4755.2744.9077.3017 1.2183.1211z" fill="#efac41"/></g><g><path d="m90.1906 76.3249-26.3118 15.2908c.5594-.3251.9065-1.0161.9093-1.9977l26.3118-15.2907c-.0028.9816-.3499 1.6725-.9093 1.9976z" fill="#efac41"/></g><g><path d="m58.6265 61.4291 26.3118-15.2908 1.4301.8257-26.3118 15.2908z" fill="#fed57a"/></g><g><g enable-background="new"><g><path d="m63.8904 59.9946-1.4252-.8238 2.5139-7.2813 1.8794 1.0922z" fill="#efac41"/></g><g><path d="m66.8585 52.9817-1.8794-1.0922 7.1336-4.1186 1.8794 1.0922z" fill="#fed57a"/></g><g><path d="m73.9921 48.8631 1.2542 4.5752-11.3559 6.5563 2.9681-7.0129z" fill="#f9bb4a"/></g></g></g><g><path d="m60.0566 62.2548 26.3118-15.2908-.0697 24.5913-26.3118 15.2908z" fill="#efac41"/></g><g><g enable-background="new"><g><path d="m62.2431 89.4006-.9397-.5461-.0878-30.9885.9397.5461z" fill="#d4dae8"/></g><g><path d="m62.1553 58.4121-.9397-.5461 25.7252-14.8525.9397.5461z" fill="#e4e8f4"/></g><g><path d="m87.8805 43.5596.0879 30.9885-25.7253 14.8525-.0878-30.9885z" fill="#cad0dd"/></g></g></g><g><path d="m63.4447 64.2109 26.3118-15.2908 1.413.8159-26.3117 15.2907z" fill="#fed57a"/></g><g><path d="m64.8578 65.0267-.0698 24.5913c-.0056 1.9759-1.4062 2.7741-3.1258 1.7813s-3.1111-3.403-3.1055-5.3789l.0697-24.5913 1.4301.8257-.0697 24.5913c-.0031 1.076.7436 2.3693 1.68 2.9099s1.705.1222 1.708-.9538l.0697-24.5913z" fill="#f9bb4a"/></g><g><path d="m64.8578 65.0267 26.3117-15.2907-.0697 24.5913-26.3118 15.2907z" fill="#efac41"/></g><g><path d="m78.3939 64.4918c-3.1943 1.8442-5.7923 6.3737-5.782 10.0149.0105 3.6998 2.6256 5.1901 5.8199 3.3458 3.1943-1.8442 5.7924-6.3443 5.7819-10.0441-.0103-3.6412-2.6254-5.1608-5.8198-3.3166z" fill="#d4dae8"/></g><g><path d="m81.4533 65.9081 1.2733.7257-5.1655 8.9469-3.1108-1.7728.7618-1.3009 1.8375 1.0472z" fill="#6eba6e"/></g></g></svg>