<svg id="Layer_1" enable-background="new 0 0 131 131" height="512" viewBox="0 0 131 131" width="512" xmlns="http://www.w3.org/2000/svg" xmlns:xlink="http://www.w3.org/1999/xlink"><clipPath id="SVGID_2_"><path id="SVGID_25_" d="m44.2182 52.8026c-.0007-.2515-.0894-.43-.2328-.5134l12.0084 6.9785c.1434.0833.2322.2618.2329.5133.0014.5-.3455 1.1135-.7806 1.3647l-12.0084-6.9785c.4349-.2511.7819-.8646.7805-1.3646z"/></clipPath><clipPath id="SVGID_4_"><path id="SVGID_27_" d="m43.9853 52.2892 12.0084 6.9785c-.1417-.0823-.3367-.0718-.5529.0531l-12.0084-6.9785c.2162-.1248.4112-.1354.5529-.0531z"/></clipPath><clipPath id="SVGID_6_"><path id="SVGID_29_" d="m42.8723 54.2243c.1433.0833.3421.0718.5652-.057l12.0084 6.9785c-.223.1288-.4219.1402-.5652.057-3.6025-2.0935-8.4059-4.8849-12.0084-6.9785z"/></clipPath><clipPath id="SVGID_8_"><path id="SVGID_31_" d="m54.8808 61.2028-12.0084-6.9785c-.1432-.0832-.2308-.2611-.2315-.5111-.0014-.5.3455-1.1135.7915-1.371l12.0084 6.9785c-.446.2575-.7929.871-.7915 1.371.0006.25.0883.4279.2315.5111z"/></clipPath><clipPath id="SVGID_10_"><path id="SVGID_33_" d="m44.2075 49.0526c-.0007-.2515-.0894-.43-.2328-.5134l12.0084 6.9785c.1434.0833.2322.2619.2329.5134.0014.5-.3455 1.1135-.7806 1.3647l-12.0084-6.9785c.435-.2512.7819-.8647.7805-1.3647z"/></clipPath><clipPath id="SVGID_12_"><path id="SVGID_35_" d="m43.9747 48.5393 12.0084 6.9785c-.1417-.0824-.3367-.0718-.553.0531l-12.0084-6.9785c.2163-.1249.4113-.1355.553-.0531z"/></clipPath><clipPath id="SVGID_14_"><path id="SVGID_37_" d="m42.8617 50.4743c.1433.0833.3421.0718.5652-.057l12.0084 6.9785c-.223.1288-.4219.1402-.5652.057-3.6026-2.0935-8.4059-4.8849-12.0084-6.9785z"/></clipPath><clipPath id="SVGID_16_"><path id="SVGID_39_" d="m54.8701 57.4528-12.0084-6.9785c-.1432-.0832-.2308-.2611-.2315-.511-.0014-.5.3455-1.1135.7915-1.371l12.0084 6.9785c-.446.2575-.7929.871-.7915 1.371.0007.25.0883.4278.2315.511z"/></clipPath><clipPath id="SVGID_18_"><path id="SVGID_41_" d="m43.4163 46.6798c.4351-.2512.782-.8647.7806-1.3647 4.0028 2.3262 8.0055 4.6523 12.0084 6.9785.0014.5-.3455 1.1134-.7806 1.3647-3.6026-2.0935-8.4059-4.8849-12.0084-6.9785z"/></clipPath><clipPath id="SVGID_20_"><path id="SVGID_43_" d="m42.8511 46.7368c.1433.0833.3421.0718.5652-.057l12.0084 6.9785c-.2231.1288-.4219.1402-.5652.057-3.6025-2.0935-8.4059-4.8849-12.0084-6.9785z"/></clipPath><clipPath id="SVGID_22_"><path id="SVGID_45_" d="m44.1969 45.3152c-.0007-.2515-.0894-.43-.2328-.5134l12.0084 6.9785c.1434.0833.2321.2618.2328.5133-4.0029-2.3261-8.0055-4.6522-12.0084-6.9784z"/></clipPath><clipPath id="SVGID_24_"><path id="SVGID_47_" d="m54.8595 53.7154-12.0084-6.9785c-.1432-.0832-.2308-.2611-.2315-.511-.0014-.5.3455-1.1135.7915-1.371l12.0084 6.9785c-.446.2575-.7929.871-.7915 1.371.0007.2499.0883.4278.2315.511z"/></clipPath><g><g><path d="m129.5024 99.1974-.0099-3.96-7.29-4.24v-.55l-.03-25.72c0-.6801-.2401-1.15-.63-1.38l-2.6-1.51c-.39-.23-.93-.18-1.53.16l-17.37 10.02-13.98-8.13c-1.16-.67-2.13-2.37-2.13-3.7.01-1.55-.73-3.27-1.81-4.51l5.73-3.31c3.66-2.14 5.51-4.92 5.51-7.7l-.04-6.63c.08-2.4901-1.29-4.98-4.13-7.01l-.06-19.94-16.81-9.77-12.63 7.28.05 16.02c-.47-.1-.94-.18-1.41-.2599l-.01-4.58-.01.01c.01-.44-.0699-.88-.23-1.31.17-.45.25-.91.25-1.36l-.01-5.16-.01.01c.01-1.68-1.1-3.37-3.31-4.66-4.44-2.57-11.66-2.57-16.13 0-2.39 1.39-3.5 3.23-3.34 5.03-.01-.1-.03-.21-.03-.32l.02 5.16c0 .44.08.87.23 1.3-.2.56-.27 1.12-.22 1.68-.01-.1-.03-.21-.03-.32l.02 5.16c0 .39.07.78.19 1.17-.17.5099-.22 1.04-.18 1.56-.01-.11-.03-.22-.03-.32v.59c-6.35-1-13.44-.08-18.44 2.81-3.89 2.25-5.77 5.21-5.63 8.14-.0099-.09-.02-.18-.02-.27l.02 6.22c-1.71.49-3.31 1.12-4.72 1.93-3.69 2.14-5.41 4.98-5.17 7.78-.02-.17-.04-.33-.04-.4901l.01 6.86c.01 2.59 1.7 5.16 5.09 7.13.2.12.41.23.62.34l.03 4.41c0 2.78 1.81 5.5099 5.43 7.61 7.27 4.25 19.13 4.25 26.41.04l3.64-2.09c.91 1.03 1.55 2.49 1.54 3.77 0 1.77 1.19 3.84 2.72 4.72l29.42 17.13c.48.27.95.41 1.38.41.33 0 .64-.08.93-.24.66-.38 1.03-1.16 1.03-2.19.01-.41.09-.75.23-1l.03 10.81v.44l-13.29 7.67.01 3.96 9.96 5.79 10.46-6.04 9.97 5.79 31.91-18.43v-3.95l-6.55-3.81zm-99.15-22.71c.87-.1299 1.73-.29 2.56-.48-.84.2-1.69.36-2.56.48zm49.6 9.61.03 13.41c-.08.03-.17.04-.24.09-.75.43-1.17 1.29-1.17 2.41 0 .58-.17 1.01-.45 1.17-.2599.15-.67.09-1.12-.17l-29.42-17.12c-1.15-.67-2.13-2.36-2.12-3.7 0-1.49-.68-3.14-1.7-4.37l18.15-10.48c.94 1.04 1.6 2.54 1.6 3.84-.01 1.77 1.19 3.85 2.72 4.73l14.24 8.29c-.32.62-.52 1.29-.52 1.9zm2.88.08c.07-.16.14-.3199.22-.47h.0099c-.0899.15-.1599.31-.2299.47zm-.74-3.8c-.34.2-.67.5-.96.84l-14.31-8.33c-1.16-.67-2.13-2.36-2.13-3.7.01-1.52-.7-3.2-1.75-4.44l18.14-10.47c.98 1.03 1.67 2.57 1.67 3.9-.0099 1.77 1.19 3.85 2.71 4.73l13.39 7.8zm20.54-8.85 17.33-10c.02-.01.03-.02.05-.02z" fill="#d4dae8"/><g><g><g enable-background="new"><g><g><path d="m119.0659 101.262.0037 3.9581 10.428-6.0206-.0036-3.9581z" fill="#4562ef"/></g></g><g><g><path d="m87.1504 119.6885.0036 3.9581 9.9644 5.7906-.0036-3.9581z" fill="#576cfb"/></g></g><g><g><path d="m97.1148 125.4791.0036 3.9581 31.9155-18.4264-.0036-3.9581z" fill="#4562ef"/></g></g><g><g><path d="m76.6892 125.7283.0036 3.9581 10.4612-6.0398-.0036-3.9581z" fill="#4562ef"/></g></g><g><g><path d="m66.7247 119.9375.0037 3.9581 9.9644 5.7908-.0036-3.9581z" fill="#576cfb"/></g></g><g><g><path d="m66.7247 119.9375 9.9645 5.7908 10.4612-6.0398 9.9644 5.7906 31.9155-18.4264-9.9644-5.7907 10.4281-6.0206-9.9644-5.7907z" fill="#748bfd"/></g></g></g></g><g><g><g><g><path d="m11.4118 38.6738.0195 6.8581c.0054 1.941.8965 3.8789 2.6798 5.5972l-.0194-6.8581c-1.7834-1.7183-2.6744-3.6563-2.6799-5.5972z" fill="#d4dae8"/></g></g></g><g><g><g><path d="m1.4977 54.1191.0195 6.8582c.0073 2.5863 1.6994 5.1651 5.0829 7.1314.5603.3256 1.1475.6357 1.842.9148l-.0194-6.8581c-.6945-.2792-1.2817-.5893-1.842-.9149-3.3836-1.9663-5.0757-4.545-5.083-7.1314z" fill="#d4dae8"/></g></g></g><g><g><g><path d="m93.3599 44.6723c0 2.7762-1.8509 5.5527-5.5106 7.6979l-48.7546 28.1421c-7.2773 4.2066-19.14 4.2066-26.4173-.0418-3.6179-2.1033-5.4267-4.8377-5.4267-7.6139l-.0421-6.8568c0 2.7762 1.8509 5.5106 5.4688 7.6139 7.2773 4.2487 19.0979 4.2487 26.4173.0421l48.7125-28.1422c3.6597-2.1033 5.5106-4.8798 5.5106-7.6139z" fill="#d4dae8"/></g></g></g><g><g><g><path d="m17.0585 30.8114c-6.3384 3.6595-7.3603 9.2263-2.9669 13.4596-2.7065.4807-5.2546 1.3335-7.3764 2.5585-6.9024 3.9851-6.9656 10.4513-.1346 14.421.5603.3256 1.1475.6357 1.842.9148-2.5112 3.8301-1.0911 8.358 4.2455 11.4593 7.2845 4.2333 19.1171 4.2333 26.4224.0156l48.7198-28.1284c7.3322-4.2332 7.3707-11.0871.0862-15.3204-5.5233-3.2098-13.6839-4.0007-20.493-2.326-.4266-.3102-.8799-.6357-1.3869-.9304-6.7242-3.9077-17.6465-3.9077-24.4146-.0002-.9938.5737-1.8271 1.1785-2.5536 1.8453-7.1092-2.0778-16.0275-1.4111-21.9899 2.0313z" fill="#e4e8f4"/></g></g></g></g><g><g><path d="m42.8309 75.014c.0237 1.4466-.996 3.2014-2.2529 3.9366-1.2568.7116-2.2765.1187-2.2765-1.3043 0-1.4466.996-3.2014 2.2528-3.9366 1.2569-.7116 2.2766-.1423 2.2766 1.3043z" fill="#bac1ce"/></g></g><g><path d="m77.7945 104.4495c-.4365 0-.9067-.139-1.3826-.4145l-29.4212-17.1227c-1.5273-.8824-2.7223-2.9597-2.7166-4.7291.0046-1.7531-1.1904-3.8722-2.6644-4.7233l-.8418-.4863c-.2837-.1633-.381-.5257-.2165-.8094.1667-.2825.5269-.3787.8094-.2165l.8418.4863c1.833 1.0572 3.2631 3.585 3.2573 5.7527-.0035 1.3374.9692 3.0315 2.126 3.6996l29.4212 17.1226c.447.2594.8569.3196 1.1186.1714.2814-.1621.4435-.5882.4447-1.1684.0035-1.1267.4192-1.9847 1.1707-2.4178.7573-.4342 1.7149-.359 2.6992.2084l2.2082 1.2749c.2837.1633.381.5257.2165.8094-.1621.2849-.5246.3833-.8094.2165l-2.2082-1.2749c-.5963-.3428-1.1452-.4203-1.5146-.2061-.3648.2096-.5743.7168-.5767 1.393-.0023 1.0294-.3717 1.8087-1.0387 2.192-.2803.1611-.5918.2422-.9229.2422z" fill="#5b5e71"/></g><g><g><path d="m62.0676 64.0124c.0237 1.4466-.996 3.2014-2.2529 3.9366-1.2568.7116-2.2765.1187-2.2765-1.3043 0-1.4466.996-3.2014 2.2528-3.9366 1.2569-.7115 2.2766-.1423 2.2766 1.3043z" fill="#bac1ce"/></g></g><g><path d="m97.0315 93.4478c-.4365 0-.9055-.139-1.3826-.4146l-29.4212-17.1226c-1.5273-.8824-2.7223-2.9597-2.7165-4.7291.0046-1.752-1.1904-3.871-2.6644-4.7233l-.8418-.484c-.2837-.1644-.381-.5269-.2177-.8106.1633-.2849.5234-.381.8106-.2177l.8418.4852c1.833 1.0595 3.2631 3.5862 3.2573 5.7539-.0035 1.3374.9692 3.0315 2.126 3.6997l29.4212 17.1226c.447.2582.8534.3173 1.1197.1714.2802-.1621.4423-.5871.4435-1.1672.0023-1.1267.418-1.9859 1.1707-2.419.7504-.4342 1.7126-.3624 2.6992.2084l2.2071 1.2749c.2837.1633.381.5257.2165.8094-.1633.286-.5257.3833-.8094.2165l-2.207-1.2749c-.5952-.3416-1.1452-.4192-1.5158-.2061-.3636.2096-.5743.7179-.5755 1.393-.0023 1.0306-.3717 1.8087-1.0387 2.192-.2792.161-.5918.2421-.923.2421z" fill="#5b5e71"/></g><g><g><path d="m81.3044 53.0109c.0237 1.4466-.996 3.2014-2.2529 3.9366-1.2568.7116-2.2765.1187-2.2765-1.3043 0-1.4466.996-3.2014 2.2528-3.9366 1.2568-.7116 2.2766-.1423 2.2766 1.3043z" fill="#bac1ce"/></g></g><g><path d="m115.1824 82.1115c-.1019 0-.205-.0255-.2988-.0799l-29.4189-17.1215c-1.5273-.8835-2.7223-2.962-2.7165-4.7302.0046-1.752-1.1904-3.871-2.6644-4.7233l-.8418-.484c-.2837-.1644-.381-.5269-.2177-.8106.1633-.2849.5246-.381.8106-.2177l.8418.4852c1.833 1.0595 3.2631 3.5862 3.2573 5.7539-.0035 1.3374.9692 3.0315 2.126 3.7008l29.4212 17.1214c.2825.1656.3786.528.2142.8117-.1112.1888-.3093.2942-.513.2942z" fill="#5b5e71"/></g><g><g><path d="m76.5117 18.3714-16.815-9.7719.0847 29.8808 16.815 9.7718z" fill="#37617b"/><path d="m61.6451 37.405-.0716-25.5573 13.0755 7.5989.0716 25.5573z" fill="#2d5468"/></g><g><path d="m89.133 11.0845-16.8151-9.7719-12.6212 7.2869 16.815 9.7719z" fill="#4c7891"/></g><g><path d="m76.5117 18.3714.0847 29.8807 12.6213-7.2868-.0847-29.8808z" fill="#416e84"/></g><g><path d="m76.5117 18.3714.0847 29.8807 12.6213-7.2868-.0847-29.8808z" fill="#416e84"/></g><g><path d="m87.439 13.3829-9.9509 5.744.0752 26.8268 9.9508-5.7452z" fill="#2d5468"/></g><g><g><g><path d="m82.422 18.2632.004 1.4156 4.5919-2.6511-.0041-1.4156z" fill="#f9607f"/></g></g><g><g><path d="m77.9236 20.8604.004 1.4156 1.5679-.9052-.004-1.4156z" fill="#f9607f"/></g></g><g><g><path d="m80.4435 19.4056.004 1.4155 1.2693-.7328-.0041-1.4156z" fill="#f9607f"/></g></g><g><g><path d="m82.4307 21.3303.004 1.4156 4.5919-2.6511-.0041-1.4155z" fill="#fed57a"/></g></g><g><g><path d="m77.9323 23.9275.004 1.4156 1.5679-.9052-.004-1.4156z" fill="#fed57a"/></g></g><g><g><path d="m80.4522 22.4727.004 1.4155 1.2693-.7328-.0041-1.4156z" fill="#fed57a"/></g></g><g><g><path d="m82.4655 33.5989.0039 1.3941 4.5919-2.6511-.004-1.3941z" fill="#fed57a"/></g></g><g><g><path d="m82.4568 30.5317.0039 1.3942 4.5919-2.6511-.004-1.3942z" fill="#9ad898"/></g></g><g><g><path d="m82.4481 27.4646.0039 1.3942 4.5919-2.6511-.004-1.3942z" fill="#cad0dd"/></g></g><g><g><path d="m82.4394 24.3975.004 1.4156 4.5918-2.6511-.004-1.4156z" fill="#748bfd"/></g></g><g><g><path d="m77.941 26.9947.004 1.4156 1.5679-.9053-.004-1.4155z" fill="#748bfd"/></g></g><g><g><path d="m80.4609 25.5398.004 1.4156 1.2692-.7328-.004-1.4156z" fill="#748bfd"/></g></g><g><g><path d="m77.9497 30.0618.0039 1.3941 1.5679-.9052-.0039-1.3941z" fill="#cad0dd"/></g></g><g><g><path d="m80.4696 28.6069.0039 1.3942 1.2693-.7329-.004-1.3941z" fill="#cad0dd"/></g></g><g><g><path d="m77.9584 33.1289.0039 1.3942 1.5679-.9052-.0039-1.3942z" fill="#9ad898"/></g></g><g><g><path d="m80.4782 31.674.004 1.3942 1.2693-.7328-.004-1.3942z" fill="#9ad898"/></g></g><g><g><path d="m77.9671 36.1961.0039 1.3941 1.5679-.9052-.0039-1.3942z" fill="#fed57a"/></g></g><g><g><path d="m80.4869 34.7412.004 1.3941 1.2693-.7328-.004-1.3941z" fill="#fed57a"/></g></g><g><g><path d="m82.4828 39.7117.004 1.4156 4.5919-2.6511-.0041-1.4156z" fill="#efac41"/></g></g><g><g><path d="m82.4741 36.6445.004 1.4157 4.5919-2.6511-.004-1.4156z" fill="#748bfd"/></g></g><g><g><path d="m77.9757 39.2417.004 1.4157 1.5679-.9053-.004-1.4156z" fill="#748bfd"/></g></g><g><g><path d="m80.4956 37.7869.004 1.4156 1.2693-.7328-.004-1.4157z" fill="#748bfd"/></g></g><g><g><path d="m77.9844 42.3089.004 1.4156 1.5679-.9053-.004-1.4155z" fill="#efac41"/></g></g><g><g><path d="m80.5043 40.854.004 1.4156 1.2693-.7328-.004-1.4156z" fill="#efac41"/></g></g></g><g><g><path d="m82.3253 11.439c-.051.2039-.1275.3822-.2294.5606-.3058.5097-.8156.994-1.5291 1.4018-.6881.4077-1.5037.688-2.3703.8409-.3312.102-.6625.1529-1.0193.1529-.5097.0765-1.045.0765-1.5546.051-.2294 0-.4334-.0255-.6371-.051-.3823-.0255-.7647-.1019-1.1469-.2038-.1529-.0255-.3058-.051-.4587-.1276-.3313-.0764-.6371-.1783-.9429-.3313-.1275-.0254-.2805-.1019-.4079-.2038-.1019-.0255-.2039-.0765-.3058-.1274l-.4842-.2805-.3568-.2038-.7645-.4334-.3569-.2036-.739-.4334-.3823-.2293-.4077-.2294c-.1019-.0764-.2294-.1274-.3313-.2039-.1019-.0764-.2039-.1529-.3058-.2293-.2039-.1784-.3823-.3568-.5352-.5352-.1019-.1019-.1783-.2038-.2293-.3058-.1529-.2039-.2549-.4332-.3313-.6626-.0255-.1274-.051-.2803-.051-.4077-.0509-.3058 0-.6371.1274-.9429.051-.1784.1275-.3823.2805-.5608.2803-.4587.7645-.8919 1.4017-1.2743.6371-.3567 1.4017-.6371 2.1917-.8155.3313-.0509.6371-.1274.9685-.1529.5352-.0764 1.0703-.1019 1.6056-.0509.2294-.0255.4332 0 .6626.0509.4077 0 .8156.0765 1.1977.1529.1784.0255.3568.0765.5352.1276.3313.1019.6371.2038.9174.3058.1274.0509.2803.1274.4079.2038.1274.051.2548.102.3822.1784l.4079.2294.3567.2039.7647.4587.3567.2038.7392.4334.3567.2038.4842.2805c.102.0509.1784.1019.2549.1784.1274.0509.2293.1529.3313.2293.2293.1529.4077.3313.5861.5097.0765.1019.1274.1784.2039.2803.1529.2294.2803.4842.3568.7137.0254.1019.0509.2038.0764.3313.0253.3056.0253.6115-.0766.9173z" fill="#37617b"/></g></g><g><path d="m88.1188 12.8481-.6341.366.0752 26.8256.636.3383z" fill="#37617b"/></g><g><path d="m87.5599 40.0397-9.9509 5.7452.002.7044 10.5849-6.1113z" fill="#4c7891"/></g><g><g><g><path d="m71.4175 5.2969-4.8423 2.8035c.051-.1784.1275-.3823.2805-.5608l3.5934-2.0898c.3312-.0508.6371-.1274.9684-.1529z" fill="#2f546a"/></g></g><g><g><path d="m76.744 6.0869-8.8435 5.0971c-.1019-.0764-.2039-.1529-.3058-.2293l8.7415-5.0716c.1273.0509.2802.1275.4078.2038z" fill="#2f546a"/></g></g><g><g><path d="m75.4187 5.5774-8.3593 4.8421c-.1019-.1019-.1783-.2038-.2293-.3058l8.0533-4.6639c.1785.0255.3569.0765.5353.1276z" fill="#2f546a"/></g></g><g><g><path d="m79.0121 7.3612-8.8944 5.1226-.3568-.2038 8.8945-5.1226z" fill="#2f546a"/></g></g><g><g><path d="m81.9685 9.4765-8.1298 4.7149c-.1529-.0255-.3058-.051-.4587-.1276l8.3846-4.8676c.0765.1019.1273.1785.2039.2803z" fill="#2f546a"/></g></g><g><g><path d="m82.4017 10.5215-6.779 3.9247c-.2294 0-.4334-.0255-.6371-.051l7.3398-4.205c.0252.1019.0508.2038.0763.3313z" fill="#2f546a"/></g></g><g><g><path d="m80.1079 7.9984-8.8688 5.1225-.3569-.2037 8.869-5.1226z" fill="#2f546a"/></g></g><g><g><path d="m82.3253 11.439c-.051.2039-.1275.3822-.2294.5606l-3.8993 2.2427c-.3312.102-.6625.1529-1.0193.1529z" fill="#2f546a"/></g></g><g><g><path d="m81.1784 8.6865-8.7415 5.046c-.1275-.0254-.2805-.1019-.4079-.2038l8.818-5.0716c.1275.051.2294.153.3314.2294z" fill="#2f546a"/></g></g><g><g><path d="m77.8907 6.6987-8.8688 5.148-.3824-.2293 8.8945-5.1226z" fill="#2f546a"/></g></g><g><g><path d="m73.6857 5.2969-7.1869 4.1541c-.0255-.1274-.051-.2803-.051-.4077l6.5753-3.7973c.2294-.0255.4332 0 .6626.0509z" fill="#2f546a"/></g></g></g></g><g><g><path d="m36.3008 17.8651.0227 7.9921c.0033 1.1684.4154 2.3354 1.2408 3.4264l-.0226-7.9921c-.8255-1.091-1.2376-2.258-1.2409-3.4264z" fill="#cad0dd"/></g><g><g><g><path d="m35.5053 34.6547.0146 5.1565c.0047 1.6794 1.1074 3.3554 3.3088 4.6347 4.4439 2.5825 11.6699 2.5825 16.1429.0001 2.2445-1.2959 3.3662-2.9987 3.3613-4.6999l-.0146-5.1565c.0048 1.7012-1.1168 3.4041-3.3614 4.6999-4.473 2.5825-11.699 2.5824-16.1429-.0001-2.2014-1.2793-3.304-2.9552-3.3087-4.6347z" fill="#576cfb"/></g></g><g><g><path d="m38.8767 29.9447c-4.473 2.5825-4.4965 6.7681-.0626 9.3448 4.4439 2.5825 11.6699 2.5825 16.1429.0001 4.4629-2.5766 4.4864-6.7622.0425-9.3447-4.4338-2.5768-11.6599-2.5768-16.1228-.0002z" fill="#748bfd"/></g></g><g><g><path d="m36.2542 27.4201.0137 7.0223c.0044 1.5692 1.0347 3.1352 3.0917 4.3306 4.1523 2.4131 10.9042 2.4131 15.0837.0001 2.0972-1.2108 3.1453-2.802 3.1408-4.3915l-.0136-7.0223c.0045 1.5896-1.0436 3.1807-3.1408 4.3915-4.1795 2.413-10.9314 2.413-15.0837-.0001-2.0571-1.1954-3.0874-2.7613-3.0918-4.3306z" fill="#fed57a"/></g></g><g><g><path d="m39.4044 23.0191c-4.1795 2.413-4.2015 6.324-.0585 8.7316 4.1523 2.4131 10.9042 2.4131 15.0837.0001 4.17-2.4076 4.1921-6.3185.0398-8.7316-4.143-2.4076-10.895-2.4076-15.065-.0001z" fill="#fed57a"/></g></g><g><g><path d="m35.5053 27.4047.0146 5.1565c.0047 1.6794 1.1074 3.3554 3.3088 4.6347 4.4439 2.5825 11.6699 2.5825 16.1429.0001 2.2445-1.2959 3.3662-2.9987 3.3613-4.6999l-.0146-5.1565c.0048 1.7012-1.1168 3.4041-3.3614 4.6999-4.473 2.5825-11.699 2.5824-16.1429-.0001-2.2014-1.2793-3.304-2.9552-3.3087-4.6347z" fill="#576cfb"/></g></g><g><g><path d="m38.8767 22.6947c-4.473 2.5825-4.4965 6.7681-.0626 9.3448 4.4439 2.5825 11.6699 2.5825 16.1429.0001 4.4629-2.5766 4.4864-6.7622.0425-9.3447-4.4338-2.5768-11.6599-2.5768-16.1228-.0002z" fill="#748bfd"/></g></g><g><g><path d="m36.2542 20.1701.0137 7.0223c.0044 1.5692 1.0347 3.1352 3.0917 4.3306 4.1523 2.4131 10.9042 2.4131 15.0837.0001 2.0972-1.2108 3.1453-2.802 3.1408-4.3915l-.0136-7.0223c.0045 1.5896-1.0436 3.1807-3.1408 4.3915-4.1795 2.413-10.9314 2.413-15.0837-.0001-2.0571-1.1954-3.0874-2.7614-3.0918-4.3306z" fill="#fed57a"/></g></g><g><g><path d="m39.4044 15.7691c-4.1795 2.413-4.2015 6.324-.0585 8.7316 4.1523 2.4131 10.9042 2.4131 15.0837.0001 4.17-2.4076 4.1921-6.3185.0398-8.7316-4.143-2.4076-10.895-2.4077-15.065-.0001z" fill="#fed57a"/></g></g><g><g><path d="m35.5053 19.8397.0146 5.1565c.0047 1.6794 1.1074 3.3554 3.3088 4.6347 4.4439 2.5825 11.6699 2.5825 16.1429.0001 2.2445-1.2959 3.3662-2.9987 3.3613-4.6999l-.0146-5.1565c.0048 1.7012-1.1168 3.4041-3.3614 4.6999-4.473 2.5825-11.699 2.5824-16.1429-.0001-2.2014-1.2793-3.304-2.9552-3.3087-4.6347z" fill="#576cfb"/></g></g><g><g><path d="m38.8767 15.1297c-4.473 2.5825-4.4965 6.7681-.0626 9.3448 4.4439 2.5825 11.6699 2.5825 16.1429.0001 4.4629-2.5766 4.4864-6.7622.0425-9.3447-4.4338-2.5768-11.6599-2.5768-16.1228-.0002z" fill="#748bfd"/></g></g><g><path d="m55.5548 27.7531c.1746 0 .3569-.0537.5424-.1605.5872-.339 1.0464-1.1346 1.0451-1.8107-.0026-.6313-.3889-.914-.7714-.914-.1746 0-.3569.0544-.5417.1605-.5878.3403-1.047 1.1366-1.0451 1.8133.0013.545.3108.9114.7707.9114z" fill="#e4e8f4"/></g><g><path d="m55.96 25.2556c-.509.2939-.9154 1.0008-.9138 1.5857.0016.5789.4107.818.9197.5241.5064-.2924.9154-1.0038.9138-1.5827-.0016-.5849-.4133-.8195-.9197-.5271z" fill="#bac1ce"/></g><g><g><path d="m36.2542 12.3524.0137 7.0223c.0044 1.5692 1.0347 3.1352 3.0917 4.3306 4.1523 2.4131 10.9042 2.4131 15.0837.0001 2.0972-1.2108 3.1453-2.802 3.1408-4.3915l-.0136-7.0223c.0045 1.5896-1.0436 3.1807-3.1408 4.3915-4.1795 2.413-10.9314 2.413-15.0837-.0001-2.0571-1.1954-3.0874-2.7614-3.0918-4.3306z" fill="#fed57a"/></g></g><g><g><path d="m35.5053 12.022.0146 5.1565c.0047 1.6794 1.1074 3.3554 3.3088 4.6347 4.4439 2.5825 11.6699 2.5825 16.1429.0001 2.2445-1.2959 3.3662-2.9987 3.3613-4.6999l-.0146-5.1565c.0048 1.7012-1.1168 3.4041-3.3614 4.6999-4.473 2.5825-11.699 2.5824-16.1429-.0001-2.2014-1.2793-3.304-2.9552-3.3087-4.6347z" fill="#576cfb"/></g></g><g><g><path d="m38.8767 7.312c-4.473 2.5825-4.4965 6.7681-.0626 9.3448 4.4439 2.5825 11.6699 2.5825 16.1429.0001 4.4629-2.5766 4.4864-6.7622.0425-9.3447-4.4338-2.5768-11.6599-2.5768-16.1228-.0002z" fill="#748bfd"/></g></g><g><path d="m55.5548 19.9354c.1746 0 .3569-.0537.5424-.1605.5872-.339 1.0464-1.1346 1.0451-1.8107-.0026-.6313-.3889-.914-.7714-.914-.1746 0-.3569.0544-.5417.1605-.5878.3403-1.047 1.1366-1.0451 1.8133.0013.545.3108.9114.7707.9114z" fill="#e4e8f4"/></g><g><path d="m55.96 17.4379c-.509.2939-.9154 1.0008-.9138 1.5857.0016.5789.4107.818.9197.5241.5064-.2924.9154-1.0038.9138-1.5827-.0016-.5849-.4133-.8195-.9197-.5271z" fill="#bac1ce"/></g><g><path d="m55.5548 35.2554c.1746 0 .3569-.0537.5424-.1605.5872-.339 1.0464-1.1346 1.0451-1.8107-.0026-.6313-.3889-.914-.7714-.914-.1746 0-.3569.0544-.5417.1605-.5878.3403-1.047 1.1366-1.0451 1.8133.0013.545.3108.9114.7707.9114z" fill="#e4e8f4"/></g><g><path d="m55.96 32.7579c-.509.2939-.9154 1.0008-.9138 1.5857.0016.5789.4107.818.9197.5241.5064-.2924.9154-1.0038.9138-1.5827-.0016-.5849-.4133-.8195-.9197-.5271z" fill="#bac1ce"/></g><g><path d="m55.5548 42.7577c.1746 0 .3569-.0537.5424-.1605.5872-.339 1.0464-1.1346 1.0451-1.8107-.0026-.6313-.3889-.914-.7714-.914-.1746 0-.3569.0544-.5417.1605-.5878.3403-1.047 1.1366-1.0451 1.8133.0013.545.3108.9114.7707.9114z" fill="#e4e8f4"/></g><g><path d="m55.96 40.2602c-.509.2939-.9154 1.0008-.9138 1.5857.0016.5789.4107.818.9197.5241.5064-.2924.9154-1.0038.9138-1.5827-.0016-.5849-.4133-.8195-.9197-.5271z" fill="#bac1ce"/></g></g></g><g><g><g><path d="m13.1048 37.3329.0863 30.4359 13.2951 7.7263-.0863-30.4359z" fill="#474b59"/></g></g><g><g><g><path d="m15.2663 66.5503 10.2574 5.9612v1.3204l-11.3769-6.6118v-.0001z" fill="#5b5e71"/></g></g><g><g><path d="m14.0703 39.0026 1.1195.6507.0765 26.897-1.1195.6697z" fill="#525566"/></g></g></g><g><g><path d="m15.1898 39.6533 10.2574 5.9611.0765 26.8971-10.2574-5.9612z" fill="#3f434f"/></g></g><g><g><g><path d="m26.3999 45.0592.0863 30.4359 13.382-7.7261-.0863-30.4359z" fill="#525566"/></g></g></g><g><g><g><path d="m13.1048 37.3329 13.2951 7.7263 13.382-7.7261-13.2951-7.7263z" fill="#5b5e71"/></g></g></g><g><g enable-background="new"><g><g><g><path d="m15.7448 65.8709v.4019l1.8275 1.0621 7.473 4.3154v-.4115z" fill="#9ad898"/></g></g></g><g><g><g><path d="m15.7352 64.3399.0096.3924 9.3005 5.3679-.0096-.3923z" fill="#9ad898"/></g></g></g><g><g><g><path d="m15.7352 62.7994v.4019l9.3005 5.368v-.402z" fill="#9ad898"/></g></g></g><g><g><g><path d="m15.7256 61.2589.0096.3923 9.3005 5.368-.0095-.3924z" fill="#9ad898"/></g></g></g><g><g><g><path d="m15.7256 59.7088v.4019l9.3006 5.3775v-.4019z" fill="#9ad898"/></g></g></g><g><g><g><path d="m15.716 58.1683.0096.4019 9.3006 5.3679-.0096-.4019z" fill="#9ad898"/></g></g></g><g><g><g><path d="m15.716 56.6277v.402l9.3006 5.3679v-.3924z" fill="#9ad898"/></g></g></g><g><g><g><path d="m15.716 55.0872v.3924l9.3006 5.3775v-.402z" fill="#9ad898"/></g></g></g><g><g><g><path d="m15.7064 53.5467v.3923l9.3006 5.368v-.3924z" fill="#9ad898"/></g></g></g><g><g><g><path d="m15.7064 51.9966v.4115l9.3006 5.3679v-.4019z" fill="#9ad898"/></g></g></g><g><g><g><path d="m15.6969 50.4656v.402l9.3006 5.3679v-.4019z" fill="#9ad898"/></g></g></g><g><g><g><path d="m15.6969 48.9251v.4019l9.3006 5.368v-.402z" fill="#9ad898"/></g></g></g><g><g><g><path d="m15.6873 47.3846v.3923l9.3006 5.368v-.3924z" fill="#9ad898"/></g></g></g><g><g><g><path d="m15.6873 45.8441v.4019l9.3006 5.3679v-.4019z" fill="#9ad898"/></g></g></g><g><g><g><path d="m15.6778 44.3035v.3924l9.3005 5.3679v-.3923z" fill="#9ad898"/></g></g></g><g><g><g><path d="m15.6778 42.7534v.4115l9.3005 5.3679v-.4019z" fill="#9ad898"/></g></g></g><g><g><g><path d="m15.6682 41.2225v.3923l9.3006 5.368v-.3924z" fill="#9ad898"/></g></g></g></g></g><g><g><g><g><path d="m34.6896 42.5627.0046 1.6399-7.4529 4.3029-.0046-1.6399z" fill="#fa5168"/></g></g><g><g><path d="m35.0847 43.5369c.1119-.0646.1961-.0166.1965.112.0003.1179-.0833.2628-.1952.3274-.1026.0592-.1775.0059-.1779-.112-.0004-.1286.074-.2681.1766-.3274z" fill="#bac1ce"/></g></g><g><g><path d="m35.083 42.9367c.1119-.0646.1961-.0166.1965.112.0003.1179-.0833.2735-.1952.3382-.1026.0592-.1776-.0048-.1779-.1227-.0004-.1287.074-.2682.1766-.3275z" fill="#bac1ce"/></g></g><g><g><path d="m35.0813 42.3365c.1119-.0646.1962-.0059.1965.112s-.0833.2735-.1952.3382c-.1026.0592-.1776-.0048-.1779-.1227-.0003-.118.074-.2683.1766-.3275z" fill="#bac1ce"/></g></g><g><g><path d="m36.5459 41.5553.0003.0965-1.0447.6031-.0003-.0964z" fill="#fa5168"/></g></g><g><g><path d="m36.5466 41.7804.0002.0964-1.0447.6032-.0002-.0965z" fill="#fa5168"/></g></g><g><g><path d="m37.7865 40.839.0003.0965-1.0447.6032-.0003-.0965z" fill="#fa5168"/></g></g><g><g><path d="m37.7882 41.4393.0003.0964-1.0447.6032-.0003-.0965z" fill="#fa5168"/></g></g><g><g><path d="m37.7889 41.6643.0002.0965-1.0447.6032-.0002-.0965z" fill="#fa5168"/></g></g><g><g><path d="m37.7872 41.0641.0002.0965-1.0447.6031-.0002-.0964z" fill="#fa5168"/></g></g><g><g><path d="m39.0305 41.3232.0003.0965-1.0447.6031-.0003-.0964z" fill="#fa5168"/></g></g><g><g><path d="m39.0312 41.5483.0002.0858-1.0447.6031-.0002-.0857z" fill="#fa5168"/></g></g><g><g><path d="m39.0295 40.9481.0002.0965-1.0447.6031-.0002-.0965z" fill="#fa5168"/></g></g><g><g><path d="m39.0288 40.723.0003.0965-1.0447.6031-.0003-.0964z" fill="#fa5168"/></g></g><g><g><path d="m39.0278 40.3479.0002.0964-1.0447.6032-.0002-.0965z" fill="#fa5168"/></g></g><g><g><path d="m39.0271 40.1228.0003.0964-1.0447.6032-.0003-.0965z" fill="#fa5168"/></g></g><g><g><path d="m36.5476 42.1555.0003.0965-1.0447.6031-.0003-.0964z" fill="#fa5168"/></g></g><g><g><path d="m36.5483 42.3806.0002.0965-1.0447.6032-.0002-.0965z" fill="#fa5168"/></g></g><g><g><path d="m36.5493 42.7558.0003.0964-1.0447.6032-.0003-.0965z" fill="#fa5168"/></g></g><g><g><path d="m36.55 42.9808.0002.0858-1.0447.6032-.0002-.0858z" fill="#fa5168"/></g></g><g><g><path d="m37.7899 42.0395.0003.0964-1.0447.6032-.0003-.0965z" fill="#fa5168"/></g></g><g><g><path d="m37.7906 42.2646.0002.0857-1.0447.6032-.0002-.0858z" fill="#fa5168"/></g></g></g><g><g><g><path d="m34.6896 46.0198.0046 1.6399-7.4529 4.3029-.0046-1.6399z" fill="#6eba6e"/></g></g><g><g><path d="m35.0847 46.9941c.1119-.0646.1961-.0166.1965.112.0003.1179-.0833.2628-.1952.3274-.1026.0592-.1775.0059-.1779-.112-.0004-.1286.074-.2682.1766-.3274z" fill="#bac1ce"/></g></g><g><g><path d="m35.083 46.3938c.1119-.0646.1961-.0166.1965.112.0003.1179-.0833.2735-.1952.3382-.1026.0592-.1776-.0048-.1779-.1227-.0004-.1287.074-.2682.1766-.3275z" fill="#bac1ce"/></g></g><g><g><path d="m35.0813 45.7936c.1119-.0646.1962-.0059.1965.112s-.0833.2735-.1952.3382c-.1026.0592-.1776-.0048-.1779-.1227-.0003-.118.074-.2682.1766-.3275z" fill="#bac1ce"/></g></g><g><g><path d="m36.5459 45.0124.0003.0965-1.0447.6032-.0003-.0965z" fill="#6eba6e"/></g></g><g><g><path d="m36.5466 45.2375.0002.0965-1.0447.6031-.0002-.0964z" fill="#6eba6e"/></g></g><g><g><path d="m37.7865 44.2962.0003.0964-1.0447.6032-.0003-.0965z" fill="#6eba6e"/></g></g><g><g><path d="m37.7882 44.8964.0003.0965-1.0447.6031-.0003-.0964z" fill="#6eba6e"/></g></g><g><g><path d="m37.7889 45.1215.0002.0965-1.0447.6031-.0002-.0965z" fill="#6eba6e"/></g></g><g><g><path d="m37.7872 44.5213.0002.0964-1.0447.6032-.0002-.0965z" fill="#6eba6e"/></g></g><g><g><path d="m39.0305 44.7804.0003.0964-1.0447.6032-.0003-.0965z" fill="#6eba6e"/></g></g><g><g><path d="m39.0312 45.0054.0002.0858-1.0447.6032-.0002-.0858z" fill="#6eba6e"/></g></g><g><g><path d="m39.0295 44.4052.0002.0965-1.0447.6032-.0002-.0965z" fill="#6eba6e"/></g></g><g><g><path d="m39.0288 44.1801.0003.0965-1.0447.6031-.0003-.0964z" fill="#6eba6e"/></g></g><g><g><path d="m39.0278 43.805.0002.0964-1.0447.6032-.0002-.0965z" fill="#6eba6e"/></g></g><g><g><path d="m39.0271 43.5799.0003.0965-1.0447.6031-.0003-.0964z" fill="#6eba6e"/></g></g><g><g><path d="m36.5476 45.6127.0003.0964-1.0447.6032-.0003-.0965z" fill="#6eba6e"/></g></g><g><g><path d="m36.5483 45.8377.0002.0965-1.0447.6032-.0002-.0965z" fill="#6eba6e"/></g></g><g><g><path d="m36.5493 46.2129.0003.0964-1.0447.6032-.0003-.0965z" fill="#6eba6e"/></g></g><g><g><path d="m36.55 46.438.0002.0857-1.0447.6032-.0002-.0858z" fill="#6eba6e"/></g></g><g><g><path d="m37.7899 45.4966.0003.0965-1.0447.6031-.0003-.0964z" fill="#6eba6e"/></g></g><g><g><path d="m37.7906 45.7217.0002.0858-1.0447.6031-.0002-.0857z" fill="#6eba6e"/></g></g></g><g><g><g><path d="m34.6896 49.4769.0046 1.6399-7.4529 4.3029-.0046-1.6398z" fill="#748bfd"/></g></g><g><g><path d="m35.0847 50.4512c.1119-.0646.1961-.0166.1965.112.0003.1179-.0833.2628-.1952.3274-.1026.0592-.1775.0059-.1779-.112-.0004-.1286.074-.2682.1766-.3274z" fill="#bac1ce"/></g></g><g><g><path d="m35.083 49.851c.1119-.0646.1961-.0166.1965.112.0003.1179-.0833.2735-.1952.3382-.1026.0592-.1776-.0048-.1779-.1227-.0004-.1287.074-.2683.1766-.3275z" fill="#bac1ce"/></g></g><g><g><path d="m35.0813 49.2508c.1119-.0646.1962-.0059.1965.112s-.0833.2735-.1952.3382c-.1026.0592-.1776-.0048-.1779-.1227-.0003-.118.074-.2683.1766-.3275z" fill="#bac1ce"/></g></g><g><g><path d="m36.5459 48.4696.0003.0964-1.0447.6032-.0003-.0965z" fill="#cad0dd"/></g></g><g><g><path d="m36.5466 48.6947.0002.0964-1.0447.6032-.0002-.0965z" fill="#cad0dd"/></g></g><g><g><path d="m37.7865 47.7533.0003.0965-1.0447.6031-.0003-.0964z" fill="#cad0dd"/></g></g><g><g><path d="m37.7882 48.3535.0003.0965-1.0447.6031-.0003-.0964z" fill="#cad0dd"/></g></g><g><g><path d="m37.7889 48.5786.0002.0965-1.0447.6032-.0002-.0965z" fill="#cad0dd"/></g></g><g><g><path d="m37.7872 47.9784.0002.0964-1.0447.6032-.0002-.0965z" fill="#cad0dd"/></g></g><g><g><path d="m39.0305 48.2375.0003.0964-1.0447.6032-.0003-.0965z" fill="#cad0dd"/></g></g><g><g><path d="m39.0312 48.4626.0002.0857-1.0447.6032-.0002-.0858z" fill="#cad0dd"/></g></g><g><g><path d="m39.0295 47.8623.0002.0965-1.0447.6032-.0002-.0965z" fill="#cad0dd"/></g></g><g><g><path d="m39.0288 47.6373.0003.0964-1.0447.6032-.0003-.0965z" fill="#cad0dd"/></g></g><g><g><path d="m39.0278 47.2621.0002.0965-1.0447.6031-.0002-.0964z" fill="#cad0dd"/></g></g><g><g><path d="m39.0271 47.037.0003.0965-1.0447.6032-.0003-.0965z" fill="#cad0dd"/></g></g><g><g><path d="m36.5476 49.0698.0003.0964-1.0447.6032-.0003-.0964z" fill="#cad0dd"/></g></g><g><g><path d="m36.5483 49.2949.0002.0965-1.0447.6031-.0002-.0965z" fill="#cad0dd"/></g></g><g><g><path d="m36.5493 49.67.0003.0965-1.0447.6031-.0003-.0964z" fill="#cad0dd"/></g></g><g><g><path d="m36.55 49.8951.0002.0858-1.0447.6031-.0002-.0858z" fill="#cad0dd"/></g></g><g><g><path d="m37.7899 48.9537.0003.0965-1.0447.6032-.0003-.0965z" fill="#cad0dd"/></g></g><g><g><path d="m37.7906 49.1788.0002.0858-1.0447.6032-.0002-.0858z" fill="#cad0dd"/></g></g></g><g><g><g><path d="m34.6896 52.9341.0046 1.6398-7.4529 4.303-.0046-1.6399z" fill="#f9bb4a"/></g></g><g><g><path d="m35.0847 53.9083c.1119-.0646.1961-.0166.1965.112.0003.1179-.0833.2628-.1952.3274-.1026.0592-.1775.0059-.1779-.112-.0004-.1286.074-.2681.1766-.3274z" fill="#bac1ce"/></g></g><g><g><path d="m35.083 53.3081c.1119-.0646.1961-.0166.1965.112.0003.1179-.0833.2735-.1952.3382-.1026.0592-.1776-.0048-.1779-.1227-.0004-.1287.074-.2683.1766-.3275z" fill="#bac1ce"/></g></g><g><g><path d="m35.0813 52.7079c.1119-.0646.1962-.0059.1965.112s-.0833.2735-.1952.3382c-.1026.0592-.1776-.0048-.1779-.1227-.0003-.118.074-.2683.1766-.3275z" fill="#bac1ce"/></g></g><g><g><path d="m36.5459 51.9267.0003.0965-1.0447.6031-.0003-.0964z" fill="#f9bb4a"/></g></g><g><g><path d="m36.5466 52.1518.0002.0964-1.0447.6032-.0002-.0965z" fill="#f9bb4a"/></g></g><g><g><path d="m37.7865 51.2104.0003.0965-1.0447.6032-.0003-.0965z" fill="#f9bb4a"/></g></g><g><g><path d="m37.7882 51.8107.0003.0964-1.0447.6032-.0003-.0965z" fill="#f9bb4a"/></g></g><g><g><path d="m37.7889 52.0357.0002.0965-1.0447.6032-.0002-.0965z" fill="#f9bb4a"/></g></g><g><g><path d="m37.7872 51.4355.0002.0965-1.0447.6031-.0002-.0964z" fill="#f9bb4a"/></g></g><g><g><path d="m39.0305 51.6946.0003.0965-1.0447.6031-.0003-.0964z" fill="#f9bb4a"/></g></g><g><g><path d="m39.0312 51.9197.0002.0858-1.0447.6031-.0002-.0857z" fill="#f9bb4a"/></g></g><g><g><path d="m39.0295 51.3195.0002.0965-1.0447.6031-.0002-.0965z" fill="#f9bb4a"/></g></g><g><g><path d="m39.0288 51.0944.0003.0964-1.0447.6032-.0003-.0964z" fill="#f9bb4a"/></g></g><g><g><path d="m39.0278 50.7193.0002.0964-1.0447.6032-.0002-.0965z" fill="#f9bb4a"/></g></g><g><g><path d="m39.0271 50.4942.0003.0964-1.0447.6032-.0003-.0965z" fill="#f9bb4a"/></g></g><g><g><path d="m36.5476 52.5269.0003.0965-1.0447.6031-.0003-.0964z" fill="#f9bb4a"/></g></g><g><g><path d="m36.5483 52.752.0002.0965-1.0447.6032-.0002-.0965z" fill="#f9bb4a"/></g></g><g><g><path d="m36.5493 53.1271.0003.0965-1.0447.6032-.0003-.0965z" fill="#f9bb4a"/></g></g><g><g><path d="m36.55 53.3522.0002.0858-1.0447.6031-.0002-.0857z" fill="#f9bb4a"/></g></g><g><g><path d="m37.7899 52.4109.0003.0964-1.0447.6032-.0003-.0965z" fill="#f9bb4a"/></g></g><g><g><path d="m37.7906 52.636.0002.0857-1.0447.6032-.0002-.0858z" fill="#f9bb4a"/></g></g></g><g><g><g><path d="m34.6896 56.3912.0046 1.6399-7.4529 4.3029-.0046-1.6399z" fill="#bac1ce"/></g></g><g><g><path d="m35.0847 57.3655c.1119-.0646.1961-.0166.1965.112.0003.1179-.0833.2628-.1952.3274-.1026.0592-.1775.0059-.1779-.112-.0004-.1286.074-.2682.1766-.3274z" fill="#bac1ce"/></g></g><g><g><path d="m35.083 56.7652c.1119-.0646.1961-.0166.1965.112.0003.1179-.0833.2735-.1952.3382-.1026.0592-.1776-.0048-.1779-.1227-.0004-.1287.074-.2682.1766-.3275z" fill="#bac1ce"/></g></g><g><g><path d="m35.0813 56.165c.1119-.0646.1962-.0059.1965.112s-.0833.2735-.1952.3382c-.1026.0592-.1776-.0048-.1779-.1227-.0003-.118.074-.2682.1766-.3275z" fill="#bac1ce"/></g></g><g><g><path d="m36.5459 55.3838.0003.0965-1.0447.6032-.0003-.0965z" fill="#bac1ce"/></g></g><g><g><path d="m36.5466 55.6089.0002.0965-1.0447.6031-.0002-.0964z" fill="#bac1ce"/></g></g><g><g><path d="m37.7865 54.6676.0003.0964-1.0447.6032-.0003-.0965z" fill="#bac1ce"/></g></g><g><g><path d="m37.7882 55.2678.0003.0964-1.0447.6032-.0003-.0965z" fill="#bac1ce"/></g></g><g><g><path d="m37.7889 55.4929.0002.0965-1.0447.6031-.0002-.0965z" fill="#bac1ce"/></g></g><g><g><path d="m37.7872 54.8926.0002.0965-1.0447.6032-.0002-.0965z" fill="#bac1ce"/></g></g><g><g><path d="m39.0305 55.1517.0003.0965-1.0447.6032-.0003-.0965z" fill="#bac1ce"/></g></g><g><g><path d="m39.0312 55.3768.0002.0858-1.0447.6032-.0002-.0858z" fill="#bac1ce"/></g></g><g><g><path d="m39.0295 54.7766.0002.0965-1.0447.6032-.0002-.0965z" fill="#bac1ce"/></g></g><g><g><path d="m39.0288 54.5515.0003.0965-1.0447.6031-.0003-.0964z" fill="#bac1ce"/></g></g><g><g><path d="m39.0278 54.1764.0002.0964-1.0447.6032-.0002-.0965z" fill="#bac1ce"/></g></g><g><g><path d="m39.0271 53.9513.0003.0965-1.0447.6031-.0003-.0964z" fill="#cad0dd"/></g></g><g><g><path d="m36.5476 55.9841.0003.0964-1.0447.6032-.0003-.0965z" fill="#bac1ce"/></g></g><g><g><path d="m36.5483 56.2091.0002.0965-1.0447.6032-.0002-.0965z" fill="#bac1ce"/></g></g><g><g><path d="m36.5493 56.5843.0003.0964-1.0447.6032-.0003-.0965z" fill="#bac1ce"/></g></g><g><g><path d="m36.55 56.8094.0002.0857-1.0447.6032-.0002-.0858z" fill="#bac1ce"/></g></g><g><g><path d="m37.7899 55.868.0003.0965-1.0447.6031-.0003-.0964z" fill="#bac1ce"/></g></g><g><g><path d="m37.7906 56.0931.0002.0858-1.0447.6031-.0002-.0858z" fill="#bac1ce"/></g></g></g><g><g><g><path d="m34.6896 59.8483.0046 1.6399-7.4529 4.3029-.0046-1.6398z" fill="#fa5168"/></g></g><g><g><path d="m35.0847 60.8226c.1119-.0646.1961-.0166.1965.112.0003.1179-.0833.2628-.1952.3274-.1026.0592-.1775.0059-.1779-.112-.0004-.1286.074-.2682.1766-.3274z" fill="#bac1ce"/></g></g><g><g><path d="m35.083 60.2224c.1119-.0646.1961-.0166.1965.112.0003.1179-.0833.2735-.1952.3382-.1026.0592-.1776-.0048-.1779-.1227-.0004-.1287.074-.2683.1766-.3275z" fill="#bac1ce"/></g></g><g><g><path d="m35.0813 59.6222c.1119-.0646.1962-.0059.1965.112s-.0833.2735-.1952.3382c-.1026.0592-.1776-.0048-.1779-.1227-.0003-.118.074-.2683.1766-.3275z" fill="#bac1ce"/></g></g><g><g><path d="m36.5459 58.841.0003.0964-1.0447.6032-.0003-.0965z" fill="#fa5168"/></g></g><g><g><path d="m36.5466 59.066.0002.0965-1.0447.6032-.0002-.0965z" fill="#fa5168"/></g></g><g><g><path d="m37.7865 58.1247.0003.0965-1.0447.6031-.0003-.0964z" fill="#fa5168"/></g></g><g><g><path d="m37.7882 58.7249.0003.0965-1.0447.6031-.0003-.0964z" fill="#fa5168"/></g></g><g><g><path d="m37.7889 58.95.0002.0965-1.0447.6031-.0002-.0964z" fill="#fa5168"/></g></g><g><g><path d="m37.7872 58.3498.0002.0964-1.0447.6032-.0002-.0965z" fill="#fa5168"/></g></g><g><g><path d="m39.0305 58.6089.0003.0964-1.0447.6032-.0003-.0965z" fill="#fa5168"/></g></g><g><g><path d="m39.0312 58.834.0002.0857-1.0447.6032-.0002-.0858z" fill="#fa5168"/></g></g><g><g><path d="m39.0295 58.2337.0002.0965-1.0447.6032-.0002-.0965z" fill="#fa5168"/></g></g><g><g><path d="m39.0288 58.0087.0003.0964-1.0447.6032-.0003-.0965z" fill="#fa5168"/></g></g><g><g><path d="m39.0278 57.6335.0002.0965-1.0447.6031-.0002-.0964z" fill="#fa5168"/></g></g><g><g><path d="m39.0271 57.4084.0003.0965-1.0447.6032-.0003-.0965z" fill="#fa5168"/></g></g><g><g><path d="m36.5476 59.4412.0003.0964-1.0447.6032-.0003-.0965z" fill="#fa5168"/></g></g><g><g><path d="m36.5483 59.6663.0002.0965-1.0447.6031-.0002-.0965z" fill="#fa5168"/></g></g><g><g><path d="m36.5493 60.0414.0003.0965-1.0447.6031-.0003-.0964z" fill="#fa5168"/></g></g><g><g><path d="m36.55 60.2665.0002.0858-1.0447.6031-.0002-.0858z" fill="#fa5168"/></g></g><g><g><path d="m37.7899 59.3251.0003.0965-1.0447.6032-.0003-.0965z" fill="#fa5168"/></g></g><g><g><path d="m37.7906 59.5502.0002.0858-1.0447.6031-.0002-.0857z" fill="#fa5168"/></g></g></g><g><g><g><path d="m34.6896 63.3055.0046 1.6398-7.4529 4.303-.0046-1.6399z" fill="#576cfb"/></g></g><g><g><path d="m35.0847 64.2797c.1119-.0646.1961-.0166.1965.112.0003.1179-.0833.2628-.1952.3274-.1026.0592-.1775.0059-.1779-.112-.0004-.1286.074-.2681.1766-.3274z" fill="#bac1ce"/></g></g><g><g><path d="m35.083 63.6795c.1119-.0646.1961-.0166.1965.112.0003.1179-.0833.2735-.1952.3382-.1026.0592-.1776-.0048-.1779-.1227-.0004-.1287.074-.2683.1766-.3275z" fill="#bac1ce"/></g></g><g><g><path d="m35.0813 63.0793c.1119-.0646.1962-.0059.1965.112s-.0833.2735-.1952.3381c-.1026.0592-.1776-.0048-.1779-.1227s.074-.2682.1766-.3274z" fill="#bac1ce"/></g></g><g><g><path d="m36.5459 62.2981.0003.0965-1.0447.6031-.0003-.0964z" fill="#576cfb"/></g></g><g><g><path d="m36.5466 62.5232.0002.0964-1.0447.6032-.0002-.0965z" fill="#576cfb"/></g></g><g><g><path d="m37.7865 61.5818.0003.0965-1.0447.6031-.0003-.0964z" fill="#576cfb"/></g></g><g><g><path d="m37.7882 62.1821.0003.0964-1.0447.6032-.0003-.0965z" fill="#576cfb"/></g></g><g><g><path d="m37.7889 62.4071.0002.0965-1.0447.6032-.0002-.0965z" fill="#576cfb"/></g></g><g><g><path d="m37.7872 61.8069.0002.0965-1.0447.6031-.0002-.0964z" fill="#576cfb"/></g></g><g><g><path d="m39.0305 62.066.0003.0965-1.0447.6031-.0003-.0964z" fill="#576cfb"/></g></g><g><g><path d="m39.0312 62.2911.0002.0858-1.0447.6031-.0002-.0858z" fill="#576cfb"/></g></g><g><g><path d="m39.0295 61.6909.0002.0965-1.0447.6031-.0002-.0965z" fill="#576cfb"/></g></g><g><g><path d="m39.0288 61.4658.0003.0964-1.0447.6032-.0003-.0965z" fill="#576cfb"/></g></g><g><g><path d="m39.0278 61.0906.0002.0965-1.0447.6032-.0002-.0965z" fill="#576cfb"/></g></g><g><g><path d="m39.0271 60.8656.0003.0964-1.0447.6032-.0003-.0965z" fill="#576cfb"/></g></g><g><g><path d="m36.5476 62.8983.0003.0965-1.0447.6031-.0003-.0964z" fill="#576cfb"/></g></g><g><g><path d="m36.5483 63.1234.0002.0965-1.0447.6031-.0002-.0964z" fill="#576cfb"/></g></g><g><g><path d="m36.5493 63.4985.0003.0965-1.0447.6032-.0003-.0965z" fill="#576cfb"/></g></g><g><g><path d="m36.55 63.7236.0002.0858-1.0447.6031-.0002-.0857z" fill="#576cfb"/></g></g><g><g><path d="m37.7899 62.7823.0003.0964-1.0447.6032-.0003-.0965z" fill="#576cfb"/></g></g><g><g><path d="m37.7906 63.0073.0002.0858-1.0447.6032-.0002-.0858z" fill="#576cfb"/></g></g></g><g><g><g><path d="m34.6896 66.7626.0046 1.6399-7.4529 4.3029-.0046-1.6399z" fill="#75ca75"/></g></g><g><g><path d="m35.0847 67.7369c.1119-.0646.1961-.0166.1965.112.0003.1179-.0833.2628-.1952.3274-.1026.0592-.1775.0059-.1779-.112-.0004-.1287.074-.2682.1766-.3274z" fill="#bac1ce"/></g></g><g><g><path d="m35.083 67.1366c.1119-.0646.1961-.0166.1965.112.0003.1179-.0833.2735-.1952.3382-.1026.0592-.1776-.0048-.1779-.1227-.0004-.1287.074-.2682.1766-.3275z" fill="#bac1ce"/></g></g><g><g><path d="m35.0813 66.5364c.1119-.0646.1962-.0059.1965.112s-.0833.2735-.1952.3382c-.1026.0592-.1776-.0048-.1779-.1227-.0003-.118.074-.2683.1766-.3275z" fill="#bac1ce"/></g></g><g><g><path d="m36.5459 65.7552.0003.0965-1.0447.6031-.0003-.0964z" fill="#75ca75"/></g></g><g><g><path d="m36.5466 65.9803.0002.0965-1.0447.6031-.0002-.0964z" fill="#75ca75"/></g></g><g><g><path d="m37.7865 65.039.0003.0964-1.0447.6032-.0003-.0965z" fill="#75ca75"/></g></g><g><g><path d="m37.7882 65.6392.0003.0964-1.0447.6032-.0003-.0965z" fill="#75ca75"/></g></g><g><g><path d="m37.7889 65.8643.0002.0965-1.0447.6031-.0002-.0965z" fill="#75ca75"/></g></g><g><g><path d="m37.7872 65.264.0002.0965-1.0447.6032-.0002-.0965z" fill="#75ca75"/></g></g><g><g><path d="m39.0305 65.5231.0003.0965-1.0447.6031-.0003-.0964z" fill="#75ca75"/></g></g><g><g><path d="m39.0312 65.7482.0002.0858-1.0447.6031-.0002-.0857z" fill="#75ca75"/></g></g><g><g><path d="m39.0295 65.148.0002.0965-1.0447.6031-.0002-.0964z" fill="#75ca75"/></g></g><g><g><path d="m39.0288 64.9229.0003.0965-1.0447.6031-.0003-.0964z" fill="#75ca75"/></g></g><g><g><path d="m39.0278 64.5478.0002.0964-1.0447.6032-.0002-.0965z" fill="#75ca75"/></g></g><g><g><path d="m39.0271 64.3227.0003.0965-1.0447.6031-.0003-.0964z" fill="#75ca75"/></g></g><g><g><path d="m36.5476 66.3554.0003.0965-1.0447.6032-.0003-.0965z" fill="#75ca75"/></g></g><g><g><path d="m36.5483 66.5805.0002.0965-1.0447.6032-.0002-.0965z" fill="#75ca75"/></g></g><g><g><path d="m36.5493 66.9557.0003.0964-1.0447.6032-.0003-.0965z" fill="#75ca75"/></g></g><g><g><path d="m36.55 67.1807.0002.0858-1.0447.6032-.0002-.0858z" fill="#75ca75"/></g></g><g><g><path d="m37.7899 66.2394.0003.0965-1.0447.6031-.0003-.0964z" fill="#75ca75"/></g></g><g><g><path d="m37.7906 66.4645.0002.0857-1.0447.6032-.0002-.0858z" fill="#75ca75"/></g></g></g></g><g><g enable-background="new"><g><g><path d="m35.6974 36.9405-.0055.7849-9.2211 5.3588.0054-.785z" fill="#464957"/></g></g><g><g><path d="m26.4762 42.2992-.0054.785-9.2815-5.3587.0055-.7849z" fill="#31323d"/></g></g><g><g><path d="m35.6974 36.9405-9.2212 5.3587-9.2814-5.3586 9.2212-5.3588z" fill="#4e5161"/></g></g></g></g></g><g><g><g><g><g><path d="m115.9355 107.9651v1.5101c0 .4827-.3016.9353-.9051 1.2973l-13.8487 7.9953c-1.3275.7543-3.4998.6639-4.6463-.181l-8.2669-8.9608v-1.5403l8.2669 8.991c1.1163.8449 3.2887.9051 4.6161.1508l13.8487-7.9953c.6337-.362.9353-.8147.9353-1.2671z" fill="#525566"/></g></g></g><g><g><g><path d="m88.2556 108.0978 8.2827 8.9642c1.128.8564 3.2972.9342 4.6264.1668l13.8503-7.9965c1.3099-.7563 1.1826-2.013-.2729-2.6803l-15.4679-4.8158z" fill="#5b5e71"/></g></g></g></g><g><g><g><g><g><g><path d="m100.1263 105.416-2.9324-1.7041 7.346-4.2412 2.9324 1.7041z" fill="#4e5161"/></g></g></g></g></g><g><g><g><g><g><path d="m100.1557 114.2296-2.1903-1.2728-.0294-8.8136 2.1903 1.2728z" fill="#bac1ce"/></g></g></g></g></g><g><g><g><g><g><path d="m107.4723 101.1748.0293 8.8136-7.3459 4.2412-.0294-8.8136z" fill="#cad0dd"/></g></g></g></g></g><g><g><g><g><g><path d="m93.4861 109.139 12.6245-7.3365 2.2571 1.4844-12.6245 7.3366z" fill="#eaf0f6"/></g></g></g></g></g><g><g><g><g><g><path d="m121.5528 63.3533c-.3711-.201-1.0058-.183-1.5934.1726l-35.2659 20.3593c-1.1906.6804-2.1647 2.3658-2.1647 3.7265l.0773 25.7141v2.4586c.0155.6804.2474 1.1597.6339 1.3762l-.6339-.3711-1.9475-1.1102c-.402-.2474-.6339-.7267-.6339-1.4071l-.0155-2.4431-.0618-25.7297c0-1.3607.9741-3.0306 2.1492-3.7264l35.3165-20.3796c.6031-.3402 1.1442-.3866 1.5308-.1547z" fill="#5b5e71"/></g></g></g></g></g><g><g><g><g><g><path d="m122.1979 90.447-39.5918 22.8788-.0773-25.7141c0-1.3607.9742-3.0307 2.1647-3.7265l35.3165-20.3796c1.1906-.6958 2.1647-.1392 2.1647 1.2215z" fill="#3f434f"/></g></g></g></g></g><g><g><g><g><g><path d="m120.7813 89.2649-36.7698 21.2439-.0708-22.8998c0-.8492.7077-2.0663 1.4719-2.5051l35.3404-20.3947z" fill="#fa5168"/></g></g></g></g></g><g><g><g><g><g><path d="m122.1979 90.447.007 2.4529c.0039 1.3718-.9597 3.0408-2.1536 3.7301l-35.27 20.3632c-1.2003.693-2.1703.1403-2.1741-1.2315l-.007-2.4529z" fill="#e4e8f4"/></g></g></g></g></g><g><g><g><g><g><path d="m103.2601 103.7192c0 .5975-.4182 1.2994-.926 1.5981s-.926.0598-.926-.5227c0-.5975.4032-1.3143.926-1.613.5077-.2838.926-.0448.926.5376z" fill="#bac1ce"/></g></g></g></g></g></g></g><g><g><g><path d="m117.1672 71.9423.0013.4843-3.9025 2.2531-.0014-.4843z" fill="#fff"/></g></g><g><g><path d="m119.7094 84.2114.0014.4843-3.2704 1.8882-.0014-.4843z" fill="#fff"/></g></g><g enable-background="new"><g><g><path d="m119.7205 88.134.0014.4843-3.2451 1.8736-.0014-.4843z" fill="#fff"/></g></g><g><g><path d="m119.715 86.1679.0013.4843-6.7177 3.8785-.0014-.4843z" fill="#fff"/></g></g><g><g><path d="m115.6578 90.4796.0014.4843-5.8412 3.3724-.0013-.4843z" fill="#fff"/></g></g><g><g><path d="m115.9333 86.3916.0014.4843-5.5631 3.2118-.0013-.4843z" fill="#fff"/></g></g><g><g><path d="m119.6872 76.376.0014.4843-3.203 1.8492-.0014-.4843z" fill="#fff"/></g></g><g><g><path d="m119.6927 78.3324.0014.4843-5.3691 3.0999-.0014-.4843z" fill="#fff"/></g></g><g><g><path d="m111.9688 90.6401.0014.4843-7.4342 4.2921-.0014-.4843z" fill="#fff"/></g></g><g><g><path d="m117.3466 81.6466.0014.4939-7.7966 4.5015-.0014-.494z" fill="#fff"/></g></g><g><g><path d="m109.1761 94.2218.0013.4843-7.1476 4.1267-.0014-.4843z" fill="#fff"/></g></g><g><g><path d="m119.6816 74.4195.0014.4843-6.6166 3.8201-.0014-.4842z" fill="#fff"/></g></g><g><g><path d="m113.1715 86.0265.0014.4842-8.2855 4.7837-.0014-.4843z" fill="#fff"/></g></g><g><g><path d="m109.7718 89.9489.0014.4843-8.1844 4.7252-.0014-.4842z" fill="#fff"/></g></g><g><g><path d="m113.4975 81.9092.0014.4843-6.9369 4.005-.0014-.4843z" fill="#fff"/></g></g><g><g><path d="m119.6761 72.4534.0014.4843-9.6763 5.5866-.0014-.4843z" fill="#fff"/></g></g><g><g><path d="m108.0749 86.9996.0014.494-5.8664 3.387-.0014-.494z" fill="#fff"/></g></g><g><g><path d="m112.1547 78.7652.0014.4843-5.3102 3.0658-.0013-.4843z" fill="#fff"/></g></g><g><g><path d="m108.5948 82.7802.0014.4842-5.3944 3.1145-.0014-.4843z" fill="#fff"/></g></g><g><g><path d="m103.3182 91.7153.0014.4842-5.268 3.0415-.0014-.4843z" fill="#fff"/></g></g><g><g><path d="m112.5903 74.5848.0014.4842-5.9086 3.4113-.0014-.4842z" fill="#fff"/></g></g><g><g><path d="m100.843 91.175.0014.4939-2.7983 1.6157-.0015-.494z" fill="#fff"/></g></g><g><g><path d="m105.0603 86.7805.0014.4842-7.0212 4.0537-.0014-.4842z" fill="#fff"/></g></g><g><g><path d="m108.6259 78.8333.0014.4842-6.5408 3.7763-.0014-.4842z" fill="#fff"/></g></g><g><g><path d="m102.4334 86.3375.0014.4842-4.3999 2.5403-.0013-.4843z" fill="#fff"/></g></g><g><g><path d="m115.0488 69.2363.0014.494-8.5974 4.9637-.0014-.494z" fill="#fff"/></g></g><g><g><path d="m110.4944 73.8352.0014.4842-6.3301 3.6547-.0013-.4843z" fill="#fff"/></g></g><g><g><path d="m106.3978 82.089.0014.4842-8.3698 4.8324-.0014-.4843z" fill="#fff"/></g></g><g><g><path d="m105.6844 74.6429.0014.4939-7.6786 4.4333-.0014-.494z" fill="#fff"/></g></g></g><g><g><path d="m119.6705 70.497.0014.4842-1.4666.8468-.0014-.4843z" fill="#fff"/></g></g><g><g><path d="m119.665 68.5405.0014.4843-8.3699 4.8323-.0013-.4843z" fill="#fff"/></g></g><g><g><path d="m119.6594 66.5744.0014.494-3.5233 2.0341-.0014-.4939z" fill="#fff"/></g></g><g><g><path d="m101.0568 83.2033.0014.4842-3.0344 1.7519-.0014-.4842z" fill="#fff"/></g></g><g><g><path d="m105.3921 78.7406.0014.4843-7.3752 4.2581-.0014-.4843z" fill="#fff"/></g></g><g><g><path d="m103.1529 78.0738.0014.4842-5.1416 2.9685-.0014-.4842z" fill="#fff"/></g></g><g><g><path d="m119.7039 82.255.0013.4843-5.2174 3.0122-.0014-.4842z" fill="#fff"/></g></g><g><g><path d="m115.5402 78.7702.0014.4843-6.3132 3.6449-.0014-.4842z" fill="#fff"/></g></g><g><g><path d="m119.6983 80.2889.0014.4939-1.7027.983-.0014-.4939z" fill="#fff"/></g></g><g><g><path d="m100.8373 95.1073.0014.4843-2.7816 1.6059-.0013-.4843z" fill="#fff"/></g></g><g><g><path d="m101.0001 98.9422.0014.4843-2.9332 1.6935-.0014-.4843z" fill="#fff"/></g></g><g><g><path d="m103.4557 95.5551.0014.4843-5.3944 3.1145-.0014-.4843z" fill="#fff"/></g></g><g><g><path d="m94.8871 80.8767.0014.494-3.5233 2.0341-.0014-.494z" fill="#fff"/></g></g><g enable-background="new"><g><g><path d="m94.9093 88.7218.0014.4843-6.6251 3.825-.0013-.4843z" fill="#fff"/></g></g><g><g><path d="m92.3864 86.2495.0014.4842-3.9026 2.2532-.0013-.4843z" fill="#fff"/></g></g><g><g><path d="m94.9038 86.7557.0013.4843-9.6847 5.5915-.0014-.4843z" fill="#fff"/></g></g><g><g><path d="m94.8927 82.8428.0013.4843-8.3698 4.8323-.0013-.4843z" fill="#fff"/></g></g></g><g><g><path d="m94.8982 84.7993.0014.4842-1.475.8516-.0014-.4842z" fill="#fff"/></g></g><g><g><path d="m94.9371 98.5137.0014.4843-3.2704 1.8882-.0014-.4843z" fill="#fff"/></g></g><g enable-background="new"><g><g><path d="m94.9482 102.4363.0014.4843-3.2535 1.8784-.0014-.4843z" fill="#fff"/></g></g><g><g><path d="m94.9426 100.4702.0014.4843-6.7262 3.8833-.0014-.4842z" fill="#fff"/></g></g><g><g><path d="m90.8855 104.7819.0014.4843-5.8496 3.3772-.0014-.4842z" fill="#fff"/></g></g><g><g><path d="m91.1526 100.6987.0013.4843-5.563 3.2118-.0014-.4842z" fill="#fff"/></g></g><g><g><path d="m92.5659 95.9538.0014.4939-7.7967 4.5014-.0014-.4939z" fill="#fff"/></g></g></g><g><g><path d="m94.926 94.5912.0014.4939-1.7111.9879-.0014-.4939z" fill="#fff"/></g></g><g><g><path d="m94.9204 92.6347.0014.4843-5.3776 3.1048-.0014-.4843z" fill="#fff"/></g></g><g><g><path d="m94.9315 96.5573.0014.4843-5.2258 3.0171-.0014-.4842z" fill="#fff"/></g></g><g><g><path d="m90.7595 93.0774.0014.4843-6.3048 3.6401-.0014-.4843z" fill="#fff"/></g></g><g><g><path d="m94.9149 90.6783.0013.4843-3.2029 1.8492-.0014-.4843z" fill="#fff"/></g></g></g><g><g><path d="m67.5981 54.5554-12.0084-6.9785-.0017-.6 12.0084 6.9785z" fill="#3f434f"/></g><g><path d="m63.7363 56.785-12.0084-6.9785 3.8618-2.2296 12.0084 6.9785z" fill="#5b5e71"/></g><g><path d="m63.7363 56.785-12.0083-6.9785-.0017-.6 12.0083 6.9785z" fill="#888"/></g><g><path d="m63.7346 56.185-12.0083-6.9785 3.8617-2.2296 12.0084 6.9785z" fill="#dbdbdb"/></g><g enable-background="new"><g clip-path="url(#SVGID_2_)" enable-background="new"><path d="m55.4459 61.1458-12.0084-6.9785c.0908-.0524.1778-.1207.2586-.2004l12.0084 6.9785c-.0808.0797-.1678.148-.2586.2004" fill="#393c47"/><path d="m55.7045 60.9454-12.0084-6.9785c.0289-.0285.057-.0585.0842-.0897l12.0084 6.9785c-.0272.0313-.0553.0612-.0842.0897" fill="#373b45"/><path d="m55.7887 60.8557-12.0084-6.9785c.0216-.0248.0427-.0505.0631-.0768l12.0084 6.9785c-.0204.0264-.0415.052-.0631.0768" fill="#363944"/><path d="m55.8518 60.7789-12.0084-6.9785c.0179-.023.0353-.0466.0521-.0707l12.0084 6.9785c-.0168.0241-.0342.0477-.0521.0707" fill="#353842"/><path d="m55.9039 60.7082-12.0084-6.9785c.0156-.0222.0308-.0449.0455-.0678l12.0084 6.9785c-.0147.023-.0299.0456-.0455.0678" fill="#333640"/><path d="m55.9494 60.6404-12.0084-6.9785c.014-.0219.0276-.0442.0407-.0667l12.0084 6.9785c-.0131.0226-.0267.0448-.0407.0667" fill="#32353e"/><path d="m55.9901 60.5737-12.0084-6.9785c.0128-.022.0253-.0443.0372-.0668l12.0084 6.9785c-.0119.0226-.0243.0448-.0372.0668" fill="#30333d"/><path d="m56.0273 60.507-12.0083-6.9785c.0119-.0223.0233-.0449.0342-.0676l12.0084 6.9785c-.011.0227-.0224.0452-.0343.0676" fill="#2f323b"/><path d="m56.0616 60.4394-12.0084-6.9785c.011-.0229.0216-.0459.0316-.0691l12.0084 6.9785c-.01.0232-.0206.0462-.0316.0691" fill="#2d3039"/><path d="m56.0932 60.3703-12.0084-6.9785c.0103-.0238.0201-.0476.0293-.0716l12.0084 6.9785c-.0092.0239-.019.0478-.0293.0716" fill="#2c2f37"/><path d="m56.1225 60.2986-12.0084-6.9785c.0096-.0251.0187-.0503.0271-.0755l12.0084 6.9785c-.0084.0253-.0175.0505-.0271.0755" fill="#2b2d35"/><path d="m56.1496 60.2231-12.0084-6.9785c.0091-.0272.0174-.0545.025-.0817l12.0084 6.9785c-.0076.0272-.0159.0545-.025.0817" fill="#292c34"/><path d="m56.1746 60.1414-12.0084-6.9785c.0085-.0308.0161-.0616.0226-.0922l12.0084 6.9785c-.0065.0306-.0141.0614-.0226.0922" fill="#282a32"/><path d="m56.1972 60.0491-12.0084-6.9785c.008-.0374.0144-.0747.0191-.1116l12.0084 6.9785c-.0048.037-.0112.0742-.0191.1116" fill="#262930"/><path d="m56.2163 59.9375-12.0084-6.9785c.0069-.053.0104-.1053.0102-.1564-.0007-.2515-.0895-.43-.2329-.5134l12.0084 6.9785c.1434.0833.2322.2619.2329.5134.0002.0511-.0033.1035-.0102.1564" fill="#25272e"/></g></g><g enable-background="new"><g clip-path="url(#SVGID_4_)" enable-background="new"><path d="m55.4407 59.3208-12.0084-6.9785c.0367-.0212.0728-.0391.1081-.0538l12.0084 6.9785c-.0353.0148-.0714.0326-.1081.0538" fill="#ccc"/><path d="m55.5488 59.267-12.0084-6.9785c.0311-.0129.0616-.0234.0913-.0315l12.0084 6.9785c-.0297.0081-.0602.0186-.0913.0315" fill="#c7c7c7"/><path d="m55.6402 59.2355-12.0084-6.9785c.0231-.0063.0458-.0111.068-.0145l12.0084 6.9785c-.0223.0035-.0449.0083-.068.0145" fill="#c2c2c2"/><path d="m55.7081 59.221-12.0084-6.9785c.0196-.003.0389-.0049.0578-.0058l12.0084 6.9785c-.0188.0009-.0381.0028-.0578.0058" fill="#bdbdbd"/><path d="m55.7659 59.2152-12.0084-6.9785c.0175-.0008.0347-.0006.0514.0004l12.0084 6.9785c-.0167-.001-.0339-.0011-.0514-.0004" fill="#b8b8b8"/><path d="m55.8174 59.2157-12.0084-6.9785c.016.001.0318.0029.0471.0055l12.0084 6.9785c-.0154-.0027-.0311-.0045-.0471-.0055" fill="#b3b3b3"/><path d="m55.8645 59.2212-12.0084-6.9785c.015.0026.0296.006.0439.0101l12.0084 6.9785c-.0143-.0041-.029-.0075-.0439-.0101" fill="#adadad"/><path d="m55.9083 59.2313-12.0083-6.9785c.0142.0041.028.009.0414.0146l12.0084 6.9785c-.0134-.0056-.0273-.0105-.0415-.0146" fill="#a8a8a8"/><path d="m55.9498 59.2459-12.0084-6.9785c.0136.0057.0269.0122.0397.0194l12.0084 6.9785c-.0129-.0072-.0261-.0137-.0397-.0194" fill="#a3a3a3"/><path d="m55.9894 59.2653-12.0083-6.9785.0042.0024 12.0084 6.9786z" fill="#9e9e9e"/></g></g><g enable-background="new"><g clip-path="url(#SVGID_6_)" enable-background="new"><path d="m54.8807 61.2028-12.0084-6.9785.0043.0025 12.0084 6.9785z" fill="#2c2f37"/><path d="m54.885 61.2053-12.0084-6.9785c.0128.0072.026.0136.0396.0193l12.0084 6.9785c-.0136-.0057-.0268-.0121-.0396-.0193" fill="#2d3039"/><path d="m54.9246 61.2246-12.0084-6.9785c.0134.0056.0273.0105.0415.0146l12.0084 6.9785c-.0142-.0041-.0281-.009-.0415-.0146" fill="#2f323b"/><path d="m54.9661 61.2392-12.0084-6.9785c.0143.0042.0291.0076.0441.0102l12.0084 6.9785c-.0151-.0026-.0298-.006-.0441-.0102" fill="#30333d"/><path d="m55.0102 61.2494-12.0084-6.9785c.0155.0027.0313.0045.0475.0056l12.0084 6.9785c-.0162-.001-.032-.0029-.0475-.0056" fill="#32353e"/><path d="m55.0578 61.255-12.0084-6.9785c.017.0011.0344.0012.0522.0004l12.0084 6.9785c-.0178.0008-.0352.0007-.0522-.0004" fill="#333640"/><path d="m55.1099 61.2554-12.0084-6.9785c.0192-.0009.0389-.0028.0589-.0059l12.0084 6.9785c-.02.0031-.0397.005-.0589.0059" fill="#353842"/><path d="m55.1688 61.2495-12.0083-6.9785c.0228-.0035.0461-.0085.0698-.0149l12.0084 6.9785c-.0238.0064-.0471.0114-.0699.0149" fill="#363944"/><path d="m55.2387 61.2346-12.0084-6.9785c.0306-.0083.062-.0191.0941-.0325l12.0084 6.9785c-.0321.0134-.0635.0241-.0941.0325" fill="#373b45"/><path d="m55.3327 61.2021-12.0084-6.9785c.0369-.0154.0747-.0341.1132-.0563l12.0084 6.9785c-.0385.0222-.0763.041-.1132.0563" fill="#393c47"/></g></g><g enable-background="new"><g clip-path="url(#SVGID_8_)" enable-background="new"><path d="m54.8808 61.2028-12.0084-6.9785c-.1432-.0832-.2308-.2611-.2315-.511-.0001-.051.0033-.1033.0102-.1562l12.0084 6.9785c-.0069.0529-.0103.1051-.0102.1562.0006.2499.0883.4278.2315.511" fill="#858585"/><path d="m54.6594 60.5356-12.0084-6.9785c.0048-.0367.0111-.0738.0191-.1111l12.0084 6.9785c-.0079.0373-.0143.0744-.0191.1111" fill="#8a8a8a"/><path d="m54.6785 60.4245-12.0084-6.9785c.0065-.0305.014-.0611.0225-.0917l12.0084 6.9785c-.0085.0307-.0161.0613-.0225.0917" fill="#8f8f8f"/><path d="m54.7009 60.3329-12.0084-6.9785c.0075-.0271.0158-.0542.0248-.0812l12.0084 6.9785c-.009.027-.0172.0541-.0248.0812" fill="#949494"/><path d="m54.7257 60.2517-12.0084-6.9785c.0084-.0251.0173-.0501.0269-.075l12.0084 6.9785c-.0095.0249-.0185.0499-.0269.075" fill="#999"/><path d="m54.7526 60.1767-12.0084-6.9785c.0092-.0238.0189-.0475.0291-.0711l12.0084 6.9785c-.0102.0235-.0199.0472-.0291.0711" fill="#9e9e9e"/><path d="m54.7817 60.1055-12.0084-6.9785c.01-.023.0205-.0459.0314-.0687l12.0084 6.9785c-.0109.0228-.0214.0457-.0314.0687" fill="#a3a3a3"/><path d="m54.8132 60.0368-12.0084-6.9785c.0109-.0226.0223-.045.0341-.0672l12.0084 6.9785c-.0119.0222-.0232.0446-.0341.0672" fill="#a8a8a8"/><path d="m54.8472 59.9696-12.0084-6.9785c.0119-.0224.0243-.0446.0371-.0665l12.0084 6.9785c-.0128.0219-.0252.0441-.0371.0665" fill="#adadad"/><path d="m54.8843 59.9031-12.0084-6.9785c.0131-.0224.0266-.0446.0406-.0665l12.0084 6.9785c-.0139.0219-.0275.044-.0406.0665" fill="#b3b3b3"/><path d="m54.9249 59.8366-12.0084-6.9785c.0147-.023.0299-.0456.0455-.0679l12.0084 6.9785c-.0156.0222-.0308.0449-.0455.0679" fill="#b8b8b8"/><path d="m54.9704 59.7687-12.0084-6.9785c.0169-.0242.0344-.0479.0524-.071l12.0084 6.9785c-.018.0231-.0354.0468-.0524.071" fill="#bdbdbd"/><path d="m55.0228 59.6976-12.0084-6.9785c.0207-.0266.042-.0526.0639-.0778l12.0084 6.9785c-.0219.0252-.0432.0512-.0639.0778" fill="#c2c2c2"/><path d="m55.0867 59.6199-12.0084-6.9785c.0278-.0319.0566-.0626.0862-.0918l12.0084 6.9785c-.0296.0292-.0584.0598-.0862.0918" fill="#c7c7c7"/><path d="m55.1729 59.528-12.0084-6.9785c.0832-.0821.1733-.1526.2678-.2072l12.0084 6.9785c-.0945.0546-.1846.1252-.2678.2072" fill="#ccc"/></g></g><g><path d="m53.6 59.5823-12.0084-6.9785 14.6857-8.4788 12.0084 6.9785z" fill="#5b5e71"/></g><g><path d="m67.5875 50.8055-12.0084-6.9786-.0017-.5875 12.0084 6.9786z" fill="#3f434f"/></g><g><path d="m53.6 59.5823 14.6856-8.4788.0097 3.4249-14.6856 8.4788zm1.8459 1.5635c.4351-.2512.7821-.8647.7806-1.3647-.0014-.5-.3507-.7115-.7858-.4603-.446.2575-.7929.871-.7915 1.371s.3507.7115.7967.454m12.1522-6.5904-.0017-.6-3.8618 2.2296.0017.6z" fill="#474b59"/></g><g><path d="m67.5964 53.9554.0017.6001-3.8618 2.2295-.0017-.6z" fill="#9ad898"/></g><g><path d="m63.7257 53.035-12.0084-6.9785 3.8618-2.2296 12.0084 6.9786z" fill="#5b5e71"/></g><g><path d="m63.7257 53.035-12.0084-6.9785-.0016-.5874 12.0083 6.9785z" fill="#888"/></g><g><path d="m63.724 52.4476-12.0083-6.9785 3.8617-2.2296 12.0084 6.9785z" fill="#dbdbdb"/></g><g enable-background="new"><g clip-path="url(#SVGID_10_)" enable-background="new"><path d="m55.4353 57.3958-12.0084-6.9785c.0908-.0524.1778-.1207.2586-.2004l12.0084 6.9785c-.0808.0798-.1678.148-.2586.2004" fill="#393c47"/><path d="m55.6939 57.1955-12.0084-6.9785c.0289-.0285.057-.0585.0842-.0897l12.0084 6.9785c-.0272.0312-.0553.0612-.0842.0897" fill="#373b45"/><path d="m55.7781 57.1057-12.0084-6.9785c.0216-.0248.0427-.0505.0631-.0768l12.0084 6.9785c-.0205.0264-.0415.052-.0631.0768" fill="#363944"/><path d="m55.8412 57.029-12.0084-6.9785c.0179-.023.0353-.0466.0521-.0707l12.0084 6.9785c-.0169.024-.0343.0476-.0521.0707" fill="#353842"/><path d="m55.8933 56.9583-12.0084-6.9785c.0156-.0222.0308-.0449.0455-.0678l12.0084 6.9785c-.0147.0229-.0299.0455-.0455.0678" fill="#333640"/><path d="m55.9388 56.8904-12.0084-6.9785c.014-.0219.0276-.0442.0407-.0667l12.0084 6.9785c-.0131.0226-.0267.0448-.0407.0667" fill="#32353e"/><path d="m55.9795 56.8238-12.0084-6.9785c.0128-.022.0253-.0443.0372-.0668l12.0084 6.9785c-.012.0225-.0244.0448-.0372.0668" fill="#30333d"/><path d="m56.0167 56.757-12.0084-6.9785c.0119-.0223.0233-.0449.0342-.0676l12.0084 6.9785c-.0109.0227-.0223.0453-.0342.0676" fill="#2f323b"/><path d="m56.0509 56.6894-12.0084-6.9785c.011-.0229.0216-.0459.0316-.0691l12.0084 6.9785c-.01.0232-.0205.0462-.0316.0691" fill="#2d3039"/><path d="m56.0826 56.6203-12.0084-6.9785c.0103-.0238.0201-.0476.0293-.0716l12.0084 6.9785c-.0093.024-.019.0478-.0293.0716" fill="#2c2f37"/><path d="m56.1119 56.5487-12.0084-6.9785c.0096-.0251.0187-.0503.0271-.0755l12.0084 6.9785c-.0084.0252-.0175.0504-.0271.0755" fill="#2b2d35"/><path d="m56.139 56.4731-12.0084-6.9785c.0091-.0272.0174-.0545.025-.0817l12.0084 6.9785c-.0076.0272-.016.0545-.025.0817" fill="#292c34"/><path d="m56.1639 56.3914-12.0084-6.9785c.0085-.0308.0161-.0616.0226-.0922l12.0084 6.9785c-.0065.0306-.014.0614-.0226.0922" fill="#282a32"/><path d="m56.1865 56.2991-12.0084-6.9785c.008-.0374.0144-.0747.0191-.1116l12.0084 6.9785c-.0047.037-.0111.0742-.0191.1116" fill="#262930"/><path d="m56.2057 56.1876-12.0084-6.9785c.0069-.053.0104-.1053.0102-.1564-.0007-.2515-.0894-.43-.2329-.5134l12.0084 6.9785c.1434.0833.2321.2619.2329.5134.0001.0511-.0033.1034-.0102.1564" fill="#25272e"/></g></g><g enable-background="new"><g clip-path="url(#SVGID_12_)" enable-background="new"><path d="m55.4301 55.5709-12.0084-6.9785c.0367-.0212.0728-.0391.1081-.0538l12.0084 6.9785c-.0353.0147-.0714.0326-.1081.0538" fill="#ccc"/><path d="m55.5382 55.5171-12.0084-6.9785c.0311-.0129.0616-.0234.0913-.0315l12.0084 6.9785c-.0297.008-.0602.0185-.0913.0315" fill="#c7c7c7"/><path d="m55.6295 55.4856-12.0084-6.9785c.0231-.0063.0458-.0111.068-.0145l12.0084 6.9785c-.0222.0034-.0449.0082-.068.0145" fill="#c2c2c2"/><path d="m55.6975 55.4711-12.0084-6.9785c.0196-.003.0389-.0049.0578-.0058l12.0084 6.9785c-.0189.0008-.0381.0027-.0578.0058" fill="#bdbdbd"/><path d="m55.7553 55.4653-12.0084-6.9785c.0175-.0008.0347-.0006.0514.0004l12.0084 6.9785c-.0167-.0011-.0339-.0012-.0514-.0004" fill="#b8b8b8"/><path d="m55.8067 55.4657-12.0084-6.9785c.016.001.0318.0029.0471.0055l12.0084 6.9785c-.0153-.0026-.031-.0045-.0471-.0055" fill="#b3b3b3"/><path d="m55.8538 55.4712-12.0084-6.9785c.015.0026.0296.006.0439.0101l12.0084 6.9785c-.0142-.0041-.0289-.0075-.0439-.0101" fill="#adadad"/><path d="m55.8977 55.4813-12.0084-6.9785c.0142.0041.028.009.0414.0146l12.0084 6.9785c-.0134-.0056-.0272-.0104-.0414-.0146" fill="#a8a8a8"/><path d="m55.9392 55.4959-12.0084-6.9785c.0136.0057.0269.0122.0397.0194l12.0084 6.9785c-.0129-.0072-.0261-.0136-.0397-.0194" fill="#a3a3a3"/><path d="m55.9788 55.5153-12.0084-6.9785.0043.0025 12.0084 6.9785-.0029-.0017" fill="#9e9e9e"/></g></g><g enable-background="new"><g clip-path="url(#SVGID_14_)" enable-background="new"><path d="m54.8701 57.4528-12.0084-6.9785.0029.0017 12.0098 6.9793z" fill="#2c2f37"/><path d="m54.8744 57.4553-12.0084-6.9785c.0128.0072.026.0136.0396.0193l12.0084 6.9785c-.0137-.0057-.0269-.0121-.0396-.0193" fill="#2d3039"/><path d="m54.9139 57.4746-12.0084-6.9785c.0134.0056.0273.0105.0415.0146l12.0084 6.9785c-.0142-.0041-.028-.0089-.0415-.0146" fill="#2f323b"/><path d="m54.9555 57.4893-12.0084-6.9785c.0143.0042.0291.0076.0441.0102l12.0084 6.9785c-.0151-.0027-.0298-.0061-.0441-.0102" fill="#30333d"/><path d="m54.9996 57.4994-12.0084-6.9785c.0155.0027.0313.0045.0475.0056l12.0084 6.9785c-.0162-.001-.032-.0029-.0475-.0056" fill="#32353e"/><path d="m55.0471 57.505-12.0084-6.9785c.017.0011.0344.0012.0522.0004l12.0084 6.9785c-.0178.0008-.0352.0007-.0522-.0004" fill="#333640"/><path d="m55.0993 57.5054-12.0084-6.9785c.0192-.0009.0389-.0028.0589-.0059l12.0084 6.9785c-.02.0031-.0397.0051-.0589.0059" fill="#353842"/><path d="m55.1582 57.4995-12.0084-6.9785c.0228-.0035.0461-.0085.0698-.0149l12.0084 6.9785c-.0237.0064-.047.0114-.0698.0149" fill="#363944"/><path d="m55.228 57.4846-12.0084-6.9785c.0306-.0083.062-.0191.0941-.0325l12.0084 6.9785c-.0321.0134-.0634.0242-.0941.0325" fill="#373b45"/><path d="m55.3221 57.4521-12.0084-6.9785c.0369-.0154.0747-.0341.1132-.0563l12.0084 6.9785c-.0385.0223-.0763.041-.1132.0563" fill="#393c47"/></g></g><g enable-background="new"><g clip-path="url(#SVGID_16_)" enable-background="new"><path d="m54.8701 57.4528-12.0084-6.9785c-.1432-.0832-.2308-.2611-.2315-.511-.0001-.051.0033-.1033.0102-.1562l12.0084 6.9785c-.0069.0529-.0103.1052-.0102.1562.0007.25.0883.4278.2315.511" fill="#858585"/><path d="m54.6488 56.7856-12.0084-6.9785c.0048-.0367.0111-.0738.0191-.1111l12.0084 6.9785c-.008.0373-.0144.0744-.0191.1111" fill="#8a8a8a"/><path d="m54.6678 56.6746-12.0083-6.9786c.0065-.0305.014-.0611.0225-.0917l12.0084 6.9785c-.0086.0307-.0161.0613-.0226.0918" fill="#8f8f8f"/><path d="m54.6903 56.5829-12.0084-6.9785c.0075-.0271.0158-.0542.0248-.0812l12.0084 6.9785c-.009.027-.0173.0541-.0248.0812" fill="#949494"/><path d="m54.7151 56.5017-12.0084-6.9785c.0083-.0251.0173-.0501.0269-.075l12.0084 6.9785c-.0096.0249-.0186.0499-.0269.075" fill="#999"/><path d="m54.742 56.4267-12.0084-6.9785c.0092-.0238.0189-.0475.0291-.0711l12.0084 6.9785c-.0102.0235-.0199.0473-.0291.0711" fill="#9e9e9e"/><path d="m54.7711 56.3555-12.0084-6.9785c.01-.023.0205-.0459.0314-.0687l12.0084 6.9785c-.0109.0228-.0214.0457-.0314.0687" fill="#a3a3a3"/><path d="m54.8025 56.2868-12.0084-6.9785c.0109-.0226.0222-.045.0341-.0672l12.0084 6.9785c-.0118.0222-.0232.0447-.0341.0672" fill="#a8a8a8"/><path d="m54.8366 56.2196-12.0084-6.9785c.0119-.0224.0243-.0446.0371-.0665l12.0084 6.9785c-.0128.0219-.0252.0441-.0371.0665" fill="#adadad"/><path d="m54.8737 56.1531-12.0084-6.9785c.0131-.0224.0266-.0446.0406-.0665l12.0084 6.9785c-.014.0219-.0275.0441-.0406.0665" fill="#b3b3b3"/><path d="m54.9143 56.0866-12.0084-6.9785c.0147-.023.0299-.0456.0455-.0679l12.0084 6.9785c-.0156.0223-.0308.0449-.0455.0679" fill="#b8b8b8"/><path d="m54.9598 56.0187-12.0084-6.9785c.0169-.0242.0344-.0479.0524-.071l12.0084 6.9785c-.018.0231-.0355.0468-.0524.071" fill="#bdbdbd"/><path d="m55.0122 55.9477-12.0084-6.9785c.0206-.0266.042-.0526.0639-.0778l12.0084 6.9785c-.022.0252-.0433.0511-.0639.0778" fill="#c2c2c2"/><path d="m55.076 55.8699-12.0084-6.9785c.0278-.0319.0566-.0626.0862-.0918l12.0084 6.9785c-.0296.0292-.0583.0599-.0862.0918" fill="#c7c7c7"/><path d="m55.1623 55.7781-12.0084-6.9785c.0832-.0821.1733-.1526.2678-.2072l12.0084 6.9785c-.0945.0545-.1846.1251-.2678.2072" fill="#ccc"/></g></g><g><path d="m53.5894 55.8323-12.0084-6.9785 14.6856-8.4788 12.0084 6.9785z" fill="#5b5e71"/></g><g><path d="m67.5769 47.068-12.0084-6.9785-.0017-.6 12.0084 6.9785z" fill="#3f434f"/></g><g><path d="m67.5858 50.218.0017.5875-3.8618 2.2295-.0017-.5874z" fill="#fed57a"/></g><g><path d="m63.7151 49.2976-12.0084-6.9785 3.8618-2.2296 12.0084 6.9785z" fill="#5b5e71"/></g><g><path d="m63.7134 48.6976-12.0084-6.9785 3.8618-2.2296 12.0084 6.9785z" fill="#dbdbdb"/></g><g><path d="m63.7151 49.2976-12.0084-6.9785-.0017-.6 12.0084 6.9785z" fill="#888"/></g><g enable-background="new"><g clip-path="url(#SVGID_18_)" enable-background="new"><path d="m55.4247 53.6584-12.0084-6.9785c.0908-.0524.1778-.1207.2586-.2004l12.0084 6.9785c-.0808.0797-.1678.1479-.2586.2004" fill="#393c47"/><path d="m55.6833 53.458-12.0084-6.9785c.0289-.0285.057-.0585.0842-.0897l12.0084 6.9785c-.0272.0312-.0553.0612-.0842.0897" fill="#373b45"/><path d="m55.7675 53.3683-12.0084-6.9785c.0216-.0248.0427-.0505.0631-.0768l12.0084 6.9785c-.0205.0263-.0415.0519-.0631.0768" fill="#363944"/><path d="m55.8306 53.2915-12.0084-6.9785c.0179-.023.0353-.0466.0521-.0707l12.0084 6.9785c-.0169.024-.0343.0476-.0521.0707" fill="#353842"/><path d="m55.8827 53.2208-12.0084-6.9785c.0156-.0222.0308-.0449.0455-.0678l12.0084 6.9785c-.0147.0229-.0299.0456-.0455.0678" fill="#333640"/><path d="m55.9282 53.1529-12.0084-6.9785c.014-.0219.0276-.0442.0407-.0667l12.0084 6.9785c-.0131.0226-.0267.0448-.0407.0667" fill="#32353e"/><path d="m55.9689 53.0863-12.0084-6.9785c.0128-.022.0253-.0443.0372-.0668l12.0084 6.9785c-.012.0225-.0244.0448-.0372.0668" fill="#30333d"/><path d="m56.0061 53.0195-12.0084-6.9785c.0119-.0223.0233-.0449.0342-.0676l12.0084 6.9785c-.0109.0227-.0223.0453-.0342.0676" fill="#2f323b"/><path d="m56.0403 52.9519-12.0083-6.9785c.011-.0229.0216-.0459.0316-.0691l12.0084 6.9785c-.0101.0232-.0206.0463-.0317.0691" fill="#2d3039"/><path d="m56.072 52.8828-12.0084-6.9785c.0103-.0238.0201-.0476.0293-.0716l12.0084 6.9785c-.0092.024-.019.0479-.0293.0716" fill="#2c2f37"/><path d="m56.1013 52.8112-12.0084-6.9785c.0096-.0251.0187-.0503.0271-.0755l12.0084 6.9785c-.0084.0252-.0175.0504-.0271.0755" fill="#2b2d35"/><path d="m56.1284 52.7357-12.0084-6.9786c.0091-.0272.0174-.0545.025-.0817l12.0084 6.9785c-.0076.0273-.016.0545-.025.0818" fill="#292c34"/><path d="m56.1533 52.6539-12.0083-6.9785c.0085-.0308.0161-.0616.0226-.0922l12.0084 6.9785c-.0066.0306-.0141.0614-.0227.0922" fill="#282a32"/><path d="m56.1759 52.5617-12.0084-6.9785c.008-.0374.0144-.0747.0191-.1116l12.0084 6.9785c-.0047.0369-.0111.0742-.0191.1116" fill="#262930"/><path d="m56.1951 52.4501-12.0084-6.9785c.0069-.053.0104-.1053.0102-.1564-.0007-.2515-.0894-.43-.2329-.5134l12.0084 6.9785c.1434.0833.2321.2619.2329.5134.0002.0511-.0033.1034-.0102.1564" fill="#25272e"/></g></g><g enable-background="new"><g clip-path="url(#SVGID_20_)" enable-background="new"><path d="m54.8595 53.7154-12.0084-6.9786.0043.0025 12.0084 6.9785z" fill="#2c2f37"/><path d="m54.8638 53.7178-12.0084-6.9785c.0128.0072.026.0136.0396.0193l12.0084 6.9785c-.0137-.0056-.0269-.0121-.0396-.0193" fill="#2d3039"/><path d="m54.9034 53.7371-12.0084-6.9785c.0134.0056.0273.0105.0415.0146l12.0084 6.9785c-.0143-.004-.0281-.0089-.0415-.0146" fill="#2f323b"/><path d="m54.9449 53.7518-12.0084-6.9785c.0143.0042.0291.0076.0441.0102l12.0084 6.9785c-.0151-.0027-.0298-.006-.0441-.0102" fill="#30333d"/><path d="m54.989 53.762-12.0084-6.9785c.0155.0027.0313.0045.0475.0056l12.0084 6.9785c-.0162-.0011-.032-.003-.0475-.0056" fill="#32353e"/><path d="m55.0365 53.7675-12.0083-6.9785c.017.0011.0344.0012.0522.0004l12.0084 6.9785c-.0179.0008-.0353.0007-.0523-.0004" fill="#333640"/><path d="m55.0887 53.7679-12.0084-6.9785c.0192-.0009.0389-.0028.0589-.0059l12.0084 6.9785c-.02.0031-.0397.0051-.0589.0059" fill="#353842"/><path d="m55.1476 53.762-12.0084-6.9785c.0228-.0035.0461-.0085.0698-.0149l12.0084 6.9785c-.0237.0065-.047.0114-.0698.0149" fill="#363944"/><path d="m55.2174 53.7471-12.0084-6.9785c.0306-.0083.062-.0191.0941-.0325l12.0084 6.9785c-.0321.0134-.0634.0242-.0941.0325" fill="#373b45"/><path d="m55.3115 53.7147-12.0084-6.9785c.0369-.0154.0747-.0341.1132-.0563l12.0084 6.9785c-.0385.0222-.0763.0409-.1132.0563" fill="#393c47"/></g></g><g enable-background="new"><g clip-path="url(#SVGID_22_)" enable-background="new"><path d="m56.1951 52.4501-12.0084-6.9785c.0069-.053.0104-.1053.0102-.1564-.0007-.2515-.0894-.43-.2329-.5134l12.0084 6.9785c.1434.0833.2321.2619.2329.5134.0002.0511-.0033.1034-.0102.1564" fill="#25272e"/></g></g><g enable-background="new"><g clip-path="url(#SVGID_24_)" enable-background="new"><path d="m54.8595 53.7154-12.0084-6.9785c-.1432-.0832-.2308-.2611-.2315-.511-.0001-.0511.0033-.1033.0102-.1562l12.0084 6.9785c-.0069.0529-.0103.1052-.0102.1562.0007.2499.0883.4278.2315.511" fill="#858585"/><path d="m54.6382 53.0481-12.0084-6.9785c.0048-.0367.0111-.0738.0191-.1111l12.0084 6.9785c-.008.0373-.0144.0744-.0191.1111" fill="#8a8a8a"/><path d="m54.6572 52.9371-12.0084-6.9785c.0065-.0305.014-.0611.0225-.0917l12.0084 6.9785c-.0085.0306-.016.0612-.0225.0917" fill="#8f8f8f"/><path d="m54.6797 52.8454-12.0084-6.9785c.0075-.0271.0158-.0542.0248-.0812l12.0084 6.9785c-.009.027-.0173.0541-.0248.0812" fill="#949494"/><path d="m54.7045 52.7642-12.0084-6.9785c.0084-.0251.0173-.0501.0269-.075l12.0084 6.9785c-.0096.0249-.0185.05-.0269.075" fill="#999"/><path d="m54.7314 52.6892-12.0084-6.9785c.0092-.0238.0189-.0475.0291-.0711l12.0084 6.9785c-.0102.0236-.0199.0473-.0291.0711" fill="#9e9e9e"/><path d="m54.7605 52.6181-12.0084-6.9785c.01-.023.0205-.0459.0314-.0687l12.0084 6.9785c-.0109.0227-.0214.0456-.0314.0687" fill="#a3a3a3"/><path d="m54.7919 52.5494-12.0084-6.9785c.0109-.0226.0223-.045.0341-.0672l12.0084 6.9785c-.0118.0222-.0232.0446-.0341.0672" fill="#a8a8a8"/><path d="m54.826 52.4822-12.0084-6.9785c.0119-.0224.0243-.0446.0371-.0665l12.0084 6.9785c-.0128.0219-.0252.0441-.0371.0665" fill="#adadad"/><path d="m54.8631 52.4156-12.0084-6.9785c.0131-.0224.0266-.0446.0406-.0665l12.0084 6.9785c-.014.0219-.0275.0441-.0406.0665" fill="#b3b3b3"/><path d="m54.9037 52.3491-12.0084-6.9785c.0147-.023.0299-.0456.0455-.0679l12.0084 6.9785c-.0156.0223-.0308.0449-.0455.0679" fill="#b8b8b8"/><path d="m54.9492 52.2812-12.0084-6.9785c.0169-.0242.0344-.0479.0524-.071l12.0084 6.9785c-.018.0232-.0355.0469-.0524.071" fill="#bdbdbd"/><path d="m55.0016 52.2102-12.0084-6.9785c.0207-.0266.042-.0526.0639-.0778l12.0084 6.9785c-.022.0252-.0433.0512-.0639.0778" fill="#c2c2c2"/><path d="m55.0655 52.1324-12.0084-6.9785c.0278-.0319.0566-.0626.0862-.0918l12.0084 6.9785c-.0297.0292-.0584.0599-.0862.0918" fill="#c7c7c7"/><path d="m55.1517 52.0406-12.0084-6.9785c.0832-.0821.1733-.1526.2678-.2072l12.0084 6.9785c-.0945.0546-.1846.1251-.2678.2072" fill="#ccc"/></g></g><g><path d="m55.4195 51.8334c.4351-.2512.7844-.0397.7858.4603s-.3455 1.1135-.7806 1.3647c-.446.2575-.7953.046-.7967-.454s.3455-1.1135.7915-1.371z" fill="#e4e8f4"/></g><g><path d="m53.5788 52.0948 14.6856-8.4787.0097 3.425-14.6856 8.4787zm1.8459 1.5636c.4351-.2512.7821-.8647.7806-1.3647-.0014-.5-.3507-.7115-.7858-.4603-.446.2575-.7929.871-.7915 1.371.0014.4999.3507.7115.7967.454m12.1522-6.5904-.0017-.6-3.8618 2.2296.0017.6z" fill="#474b59"/></g><g><path d="m67.5752 46.468.0017.6-3.8618 2.2296-.0017-.6z" fill="#e4e8f4"/></g><g><path d="m55.4407 59.3208c.4351-.2512.7844-.0397.7858.4603s-.3455 1.1135-.7806 1.3647c-.446.2575-.7953.046-.7967-.454s.3455-1.1135.7915-1.371z" fill="#9ad898"/></g><g><path d="m53.6097 63.0072-12.0083-6.9785-.0098-3.4249 12.0084 6.9785z" fill="#3f434f"/></g><g><path d="m55.4301 55.5709c.4351-.2512.7844-.0397.7858.4603s-.3455 1.1135-.7806 1.3647c-.446.2575-.7953.046-.7967-.454-.0014-.5001.3455-1.1135.7915-1.371z" fill="#fed57a"/></g><g><path d="m53.5894 55.8323 14.6856-8.4787.0097 3.4375-14.6856 8.4787zm1.8459 1.5635c.4351-.2512.7821-.8647.7806-1.3647-.0014-.5-.3507-.7115-.7858-.4603-.446.2575-.7929.871-.7915 1.371s.3506.7115.7967.454m12.1522-6.5903-.0017-.5875-3.8618 2.2296.0017.5875z" fill="#474b59"/></g><g><path d="m53.5991 59.2697-12.0083-6.9785-.0098-3.4374 12.0084 6.9785z" fill="#3f434f"/></g><g><path d="m53.5885 55.5198-12.0084-6.9785-.0097-3.425 12.0084 6.9785z" fill="#3f434f"/></g><g><path d="m53.5788 52.0948-12.0084-6.9785 14.6856-8.4788 12.0084 6.9785z" fill="#5b5e71"/></g><g><path d="m53.7795 50.9362-10.2083-5.9324 12.4842-7.2077 10.2083 5.9324z" fill="#474b59"/></g></g></g></g></g></svg>